<?xml version="1.0" encoding="UTF-8" standalone="no"?>
<!DOCTYPE svg PUBLIC "-//W3C//DTD SVG 1.1//EN"
 "http://www.w3.org/Graphics/SVG/1.1/DTD/svg11.dtd">
<!-- Generated by graphviz version 2.38.0 (20140413.2041)
 -->
<!-- Title: controllers_diagram Pages: 1 -->
<svg width="754pt" height="640pt"
 viewBox="0.00 0.00 754.00 639.50" xmlns="http://www.w3.org/2000/svg" xmlns:xlink="http://www.w3.org/1999/xlink">
<g id="graph0" class="graph" transform="scale(1 1) rotate(0) translate(274 401.5)">
<title>controllers_diagram</title>
<polygon fill="none" stroke="none" points="-274,238 -274,-401.5 480,-401.5 480,238 -274,238"/>
<!-- _diagram_info -->
<g id="node1" class="node"><title>_diagram_info</title>
<text text-anchor="start" x="-225.5" y="170.4" font-family="Times New Roman,serif" font-size="13.00">Controllers diagram</text>
<text text-anchor="start" x="-225.5" y="184.4" font-family="Times New Roman,serif" font-size="13.00">Date: Jul 27 2016 &#45; 15:58</text>
<text text-anchor="start" x="-225.5" y="198.4" font-family="Times New Roman,serif" font-size="13.00">Migration version: 20160725035251</text>
<text text-anchor="start" x="-225.5" y="212.4" font-family="Times New Roman,serif" font-size="13.00">Generated by RailRoady 1.5.1</text>
<text text-anchor="start" x="-225.5" y="226.4" font-family="Times New Roman,serif" font-size="13.00">http://railroady.prestonlee.com</text>
</g>
<!-- ApplicationController -->
<g id="node2" class="node"><title>ApplicationController</title>
<path fill="none" stroke="black" d="M-239.5,107C-239.5,107 -126.5,107 -126.5,107 -120.5,107 -114.5,101 -114.5,95 -114.5,95 -114.5,25 -114.5,25 -114.5,19 -120.5,13 -126.5,13 -126.5,13 -239.5,13 -239.5,13 -245.5,13 -251.5,19 -251.5,25 -251.5,25 -251.5,95 -251.5,95 -251.5,101 -245.5,107 -239.5,107"/>
<text text-anchor="middle" x="-183" y="28.2" font-family="Times New Roman,serif" font-size="14.00">ApplicationController</text>
<polyline fill="none" stroke="black" points="-251.5,36 -114.5,36 "/>
<polyline fill="none" stroke="black" points="-251.5,60 -114.5,60 "/>
<polyline fill="none" stroke="black" points="-251.5,84 -114.5,84 "/>
<text text-anchor="start" x="-243.5" y="99.2" font-family="Times New Roman,serif" font-size="14.00">_layout</text>
</g>
<!-- HomeController -->
<g id="node3" class="node"><title>HomeController</title>
<path fill="none" stroke="black" d="M-239.5,-252.5C-239.5,-252.5 -156.5,-252.5 -156.5,-252.5 -150.5,-252.5 -144.5,-258.5 -144.5,-264.5 -144.5,-264.5 -144.5,-333.5 -144.5,-333.5 -144.5,-339.5 -150.5,-345.5 -156.5,-345.5 -156.5,-345.5 -239.5,-345.5 -239.5,-345.5 -245.5,-345.5 -251.5,-339.5 -251.5,-333.5 -251.5,-333.5 -251.5,-264.5 -251.5,-264.5 -251.5,-258.5 -245.5,-252.5 -239.5,-252.5"/>
<text text-anchor="middle" x="-198" y="-330.3" font-family="Times New Roman,serif" font-size="14.00">HomeController</text>
<polyline fill="none" stroke="black" points="-251.5,-322.5 -144.5,-322.5 "/>
<text text-anchor="start" x="-243.5" y="-307.3" font-family="Times New Roman,serif" font-size="14.00">index</text>
<polyline fill="none" stroke="black" points="-251.5,-299.5 -144.5,-299.5 "/>
<polyline fill="none" stroke="black" points="-251.5,-275.5 -144.5,-275.5 "/>
<text text-anchor="start" x="-243.5" y="-260.3" font-family="Times New Roman,serif" font-size="14.00">_layout</text>
</g>
<!-- PublicView::PollsController -->
<g id="node4" class="node"><title>PublicView::PollsController</title>
<path fill="none" stroke="black" d="M-258,-18.5C-258,-18.5 -112,-18.5 -112,-18.5 -106,-18.5 -100,-24.5 -100,-30.5 -100,-30.5 -100,-99.5 -100,-99.5 -100,-105.5 -106,-111.5 -112,-111.5 -112,-111.5 -258,-111.5 -258,-111.5 -264,-111.5 -270,-105.5 -270,-99.5 -270,-99.5 -270,-30.5 -270,-30.5 -270,-24.5 -264,-18.5 -258,-18.5"/>
<text text-anchor="middle" x="-185" y="-96.3" font-family="Times New Roman,serif" font-size="14.00">PublicView::PollsController</text>
<polyline fill="none" stroke="black" points="-270,-88.5 -100,-88.5 "/>
<text text-anchor="start" x="-262" y="-73.3" font-family="Times New Roman,serif" font-size="14.00">show</text>
<polyline fill="none" stroke="black" points="-270,-65.5 -100,-65.5 "/>
<polyline fill="none" stroke="black" points="-270,-41.5 -100,-41.5 "/>
<text text-anchor="start" x="-262" y="-26.3" font-family="Times New Roman,serif" font-size="14.00">_layout</text>
</g>
<!-- PublicView::ProjectsController -->
<g id="node5" class="node"><title>PublicView::ProjectsController</title>
<path fill="none" stroke="black" d="M300,-289C300,-289 464,-289 464,-289 470,-289 476,-295 476,-301 476,-301 476,-385 476,-385 476,-391 470,-397 464,-397 464,-397 300,-397 300,-397 294,-397 288,-391 288,-385 288,-385 288,-301 288,-301 288,-295 294,-289 300,-289"/>
<text text-anchor="middle" x="382" y="-381.8" font-family="Times New Roman,serif" font-size="14.00">PublicView::ProjectsController</text>
<polyline fill="none" stroke="black" points="288,-374 476,-374 "/>
<text text-anchor="start" x="296" y="-358.8" font-family="Times New Roman,serif" font-size="14.00">index</text>
<text text-anchor="start" x="296" y="-343.8" font-family="Times New Roman,serif" font-size="14.00">show</text>
<polyline fill="none" stroke="black" points="288,-336 476,-336 "/>
<polyline fill="none" stroke="black" points="288,-312 476,-312 "/>
<text text-anchor="start" x="296" y="-296.8" font-family="Times New Roman,serif" font-size="14.00">_layout</text>
</g>
<!-- PublicView::VotesController -->
<g id="node6" class="node"><title>PublicView::VotesController</title>
<path fill="none" stroke="black" d="M282,89C282,89 434,89 434,89 440,89 446,83 446,77 446,77 446,-37 446,-37 446,-43 440,-49 434,-49 434,-49 282,-49 282,-49 276,-49 270,-43 270,-37 270,-37 270,77 270,77 270,83 276,89 282,89"/>
<text text-anchor="middle" x="358" y="-33.8" font-family="Times New Roman,serif" font-size="14.00">PublicView::VotesController</text>
<polyline fill="none" stroke="black" points="270,-26 446,-26 "/>
<text text-anchor="start" x="278" y="-10.8" font-family="Times New Roman,serif" font-size="14.00">create</text>
<text text-anchor="start" x="278" y="4.2" font-family="Times New Roman,serif" font-size="14.00">new</text>
<polyline fill="none" stroke="black" points="270,12 446,12 "/>
<polyline fill="none" stroke="black" points="270,36 446,36 "/>
<text text-anchor="start" x="278" y="51.2" font-family="Times New Roman,serif" font-size="14.00">_layout</text>
<text text-anchor="start" x="278" y="66.2" font-family="Times New Roman,serif" font-size="14.00">authorize_poll</text>
<text text-anchor="start" x="278" y="81.2" font-family="Times New Roman,serif" font-size="14.00">issues_ids</text>
</g>
<!-- SourcesController -->
<g id="node7" class="node"><title>SourcesController</title>
<path fill="none" stroke="black" d="M-96,-145C-96,-145 44,-145 44,-145 50,-145 56,-151 56,-157 56,-157 56,-345 56,-345 56,-351 50,-357 44,-357 44,-357 -96,-357 -96,-357 -102,-357 -108,-351 -108,-345 -108,-345 -108,-157 -108,-157 -108,-151 -102,-145 -96,-145"/>
<text text-anchor="middle" x="-26" y="-341.8" font-family="Times New Roman,serif" font-size="14.00">SourcesController</text>
<polyline fill="none" stroke="black" points="-108,-334 56,-334 "/>
<text text-anchor="start" x="-100" y="-318.8" font-family="Times New Roman,serif" font-size="14.00">create</text>
<text text-anchor="start" x="-100" y="-303.8" font-family="Times New Roman,serif" font-size="14.00">edit</text>
<text text-anchor="start" x="-100" y="-288.8" font-family="Times New Roman,serif" font-size="14.00">new</text>
<text text-anchor="start" x="-100" y="-273.8" font-family="Times New Roman,serif" font-size="14.00">show</text>
<text text-anchor="start" x="-100" y="-258.8" font-family="Times New Roman,serif" font-size="14.00">update</text>
<polyline fill="none" stroke="black" points="-108,-251 56,-251 "/>
<text text-anchor="start" x="-100" y="-235.8" font-family="Times New Roman,serif" font-size="14.00">build_source</text>
<text text-anchor="start" x="-100" y="-220.8" font-family="Times New Roman,serif" font-size="14.00">create_source</text>
<text text-anchor="start" x="-100" y="-205.8" font-family="Times New Roman,serif" font-size="14.00">source_params</text>
<polyline fill="none" stroke="black" points="-108,-198 56,-198 "/>
<text text-anchor="start" x="-100" y="-182.8" font-family="Times New Roman,serif" font-size="14.00">_layout</text>
<text text-anchor="start" x="-100" y="-167.8" font-family="Times New Roman,serif" font-size="14.00">authorize_source_actions</text>
<text text-anchor="start" x="-100" y="-152.8" font-family="Times New Roman,serif" font-size="14.00">authorize_source_creation</text>
</g>
<!-- User::PollsController -->
<g id="node8" class="node"><title>User::PollsController</title>
<path fill="none" stroke="black" d="M-59.5,125C-59.5,125 49.5,125 49.5,125 55.5,125 61.5,119 61.5,113 61.5,113 61.5,-91 61.5,-91 61.5,-97 55.5,-103 49.5,-103 49.5,-103 -59.5,-103 -59.5,-103 -65.5,-103 -71.5,-97 -71.5,-91 -71.5,-91 -71.5,113 -71.5,113 -71.5,119 -65.5,125 -59.5,125"/>
<text text-anchor="middle" x="-5" y="-87.8" font-family="Times New Roman,serif" font-size="14.00">User::PollsController</text>
<polyline fill="none" stroke="black" points="-71.5,-80 61.5,-80 "/>
<text text-anchor="start" x="-63.5" y="-64.8" font-family="Times New Roman,serif" font-size="14.00">create</text>
<text text-anchor="start" x="-63.5" y="-49.8" font-family="Times New Roman,serif" font-size="14.00">destroy</text>
<text text-anchor="start" x="-63.5" y="-34.8" font-family="Times New Roman,serif" font-size="14.00">edit</text>
<text text-anchor="start" x="-63.5" y="-19.8" font-family="Times New Roman,serif" font-size="14.00">enable_disable</text>
<text text-anchor="start" x="-63.5" y="-4.8" font-family="Times New Roman,serif" font-size="14.00">new</text>
<text text-anchor="start" x="-63.5" y="10.2" font-family="Times New Roman,serif" font-size="14.00">show</text>
<text text-anchor="start" x="-63.5" y="25.2" font-family="Times New Roman,serif" font-size="14.00">update</text>
<polyline fill="none" stroke="black" points="-71.5,33 61.5,33 "/>
<polyline fill="none" stroke="black" points="-71.5,57 61.5,57 "/>
<text text-anchor="start" x="-63.5" y="72.2" font-family="Times New Roman,serif" font-size="14.00">_layout</text>
<text text-anchor="start" x="-63.5" y="87.2" font-family="Times New Roman,serif" font-size="14.00">issues_ids</text>
<text text-anchor="start" x="-63.5" y="102.2" font-family="Times New Roman,serif" font-size="14.00">poll_duration</text>
<text text-anchor="start" x="-63.5" y="117.2" font-family="Times New Roman,serif" font-size="14.00">poll_params</text>
</g>
<!-- User::ProjectsController -->
<g id="node9" class="node"><title>User::ProjectsController</title>
<path fill="none" stroke="black" d="M102.5,89.5C102.5,89.5 229.5,89.5 229.5,89.5 235.5,89.5 241.5,83.5 241.5,77.5 241.5,77.5 241.5,-111.5 241.5,-111.5 241.5,-117.5 235.5,-123.5 229.5,-123.5 229.5,-123.5 102.5,-123.5 102.5,-123.5 96.5,-123.5 90.5,-117.5 90.5,-111.5 90.5,-111.5 90.5,77.5 90.5,77.5 90.5,83.5 96.5,89.5 102.5,89.5"/>
<text text-anchor="middle" x="166" y="-108.3" font-family="Times New Roman,serif" font-size="14.00">User::ProjectsController</text>
<polyline fill="none" stroke="black" points="90.5,-100.5 241.5,-100.5 "/>
<text text-anchor="start" x="98.5" y="-85.3" font-family="Times New Roman,serif" font-size="14.00">create</text>
<text text-anchor="start" x="98.5" y="-70.3" font-family="Times New Roman,serif" font-size="14.00">destroy</text>
<text text-anchor="start" x="98.5" y="-55.3" font-family="Times New Roman,serif" font-size="14.00">edit</text>
<text text-anchor="start" x="98.5" y="-40.3" font-family="Times New Roman,serif" font-size="14.00">index</text>
<text text-anchor="start" x="98.5" y="-25.3" font-family="Times New Roman,serif" font-size="14.00">new</text>
<text text-anchor="start" x="98.5" y="-10.3" font-family="Times New Roman,serif" font-size="14.00">new_source</text>
<text text-anchor="start" x="98.5" y="4.7" font-family="Times New Roman,serif" font-size="14.00">show</text>
<text text-anchor="start" x="98.5" y="19.7" font-family="Times New Roman,serif" font-size="14.00">update</text>
<polyline fill="none" stroke="black" points="90.5,27.5 241.5,27.5 "/>
<polyline fill="none" stroke="black" points="90.5,51.5 241.5,51.5 "/>
<text text-anchor="start" x="98.5" y="66.7" font-family="Times New Roman,serif" font-size="14.00">_layout</text>
<text text-anchor="start" x="98.5" y="81.7" font-family="Times New Roman,serif" font-size="14.00">project_params</text>
</g>
<!-- User::Sources::GithubSourcesController -->
<g id="node10" class="node"><title>User::Sources::GithubSourcesController</title>
<path fill="none" stroke="black" d="M174.5,-162.5C174.5,-162.5 391.5,-162.5 391.5,-162.5 397.5,-162.5 403.5,-168.5 403.5,-174.5 403.5,-174.5 403.5,-243.5 403.5,-243.5 403.5,-249.5 397.5,-255.5 391.5,-255.5 391.5,-255.5 174.5,-255.5 174.5,-255.5 168.5,-255.5 162.5,-249.5 162.5,-243.5 162.5,-243.5 162.5,-174.5 162.5,-174.5 162.5,-168.5 168.5,-162.5 174.5,-162.5"/>
<text text-anchor="middle" x="283" y="-240.3" font-family="Times New Roman,serif" font-size="14.00">User::Sources::GithubSourcesController</text>
<polyline fill="none" stroke="black" points="162.5,-232.5 403.5,-232.5 "/>
<polyline fill="none" stroke="black" points="162.5,-208.5 403.5,-208.5 "/>
<text text-anchor="start" x="170.5" y="-193.3" font-family="Times New Roman,serif" font-size="14.00">source_params</text>
<polyline fill="none" stroke="black" points="162.5,-185.5 403.5,-185.5 "/>
<text text-anchor="start" x="170.5" y="-170.3" font-family="Times New Roman,serif" font-size="14.00">_layout</text>
</g>
<!-- User::Sources::MockedSourcesController -->
<g id="node11" class="node"><title>User::Sources::MockedSourcesController</title>
<path fill="none" stroke="black" d="M102.5,215.5C102.5,215.5 327.5,215.5 327.5,215.5 333.5,215.5 339.5,209.5 339.5,203.5 339.5,203.5 339.5,134.5 339.5,134.5 339.5,128.5 333.5,122.5 327.5,122.5 327.5,122.5 102.5,122.5 102.5,122.5 96.5,122.5 90.5,128.5 90.5,134.5 90.5,134.5 90.5,203.5 90.5,203.5 90.5,209.5 96.5,215.5 102.5,215.5"/>
<text text-anchor="middle" x="215" y="137.7" font-family="Times New Roman,serif" font-size="14.00">User::Sources::MockedSourcesController</text>
<polyline fill="none" stroke="black" points="90.5,145.5 339.5,145.5 "/>
<polyline fill="none" stroke="black" points="90.5,169.5 339.5,169.5 "/>
<text text-anchor="start" x="98.5" y="184.7" font-family="Times New Roman,serif" font-size="14.00">source_params</text>
<polyline fill="none" stroke="black" points="90.5,192.5 339.5,192.5 "/>
<text text-anchor="start" x="98.5" y="207.7" font-family="Times New Roman,serif" font-size="14.00">_layout</text>
</g>
</g>
</svg>
