<?xml version="1.0" encoding="UTF-8" standalone="no"?>
<!DOCTYPE svg PUBLIC "-//W3C//DTD SVG 1.1//EN"
 "http://www.w3.org/Graphics/SVG/1.1/DTD/svg11.dtd">
<!-- Generated by graphviz version 2.38.0 (20140413.2041)
 -->
<!-- Title: models_diagram Pages: 1 -->
<svg width="1016pt" height="957pt"
 viewBox="0.00 0.00 1015.50 957.00" xmlns="http://www.w3.org/2000/svg" xmlns:xlink="http://www.w3.org/1999/xlink">
<g id="graph0" class="graph" transform="scale(1 1) rotate(0) translate(4 953)">
<title>models_diagram</title>
<polygon fill="none" stroke="none" points="-4,4 -4,-953 1011.5,-953 1011.5,4 -4,4"/>
<!-- _diagram_info -->
<g id="node1" class="node"><title>_diagram_info</title>
<text text-anchor="start" x="8" y="-860.1" font-family="Times New Roman,serif" font-size="13.00">Models diagram</text>
<text text-anchor="start" x="8" y="-846.1" font-family="Times New Roman,serif" font-size="13.00">Date: Jul 27 2016 &#45; 16:37</text>
<text text-anchor="start" x="8" y="-832.1" font-family="Times New Roman,serif" font-size="13.00">Migration version: 20160725035251</text>
<text text-anchor="start" x="8" y="-818.1" font-family="Times New Roman,serif" font-size="13.00">Generated by RailRoady 1.5.1</text>
<text text-anchor="start" x="8" y="-804.1" font-family="Times New Roman,serif" font-size="13.00">http://railroady.prestonlee.com</text>
</g>
<!-- Ability -->
<g id="node2" class="node"><title>Ability</title>
<polygon fill="none" stroke="black" points="227.5,-812.5 227.5,-858.5 281.5,-858.5 281.5,-812.5 227.5,-812.5"/>
<text text-anchor="middle" x="254.5" y="-843.3" font-family="Times New Roman,serif" font-size="14.00">Ability</text>
<polyline fill="none" stroke="black" points="227.5,-835.5 281.5,-835.5 "/>
<text text-anchor="middle" x="254.5" y="-820.3" font-family="Times New Roman,serif" font-size="14.00"> </text>
</g>
<!-- GithubSource -->
<g id="node3" class="node"><title>GithubSource</title>
<path fill="none" stroke="black" d="M312,-782.5C312,-782.5 471,-782.5 471,-782.5 477,-782.5 483,-788.5 483,-794.5 483,-794.5 483,-876.5 483,-876.5 483,-882.5 477,-888.5 471,-888.5 471,-888.5 312,-888.5 312,-888.5 306,-888.5 300,-882.5 300,-876.5 300,-876.5 300,-794.5 300,-794.5 300,-788.5 306,-782.5 312,-782.5"/>
<text text-anchor="middle" x="391.5" y="-873.3" font-family="Times New Roman,serif" font-size="14.00">GithubSource</text>
<polyline fill="none" stroke="black" points="300,-865.5 483,-865.5 "/>
<text text-anchor="start" x="308" y="-850.3" font-family="Times New Roman,serif" font-size="14.00">id :INTEGER</text>
<text text-anchor="start" x="308" y="-835.3" font-family="Times New Roman,serif" font-size="14.00">repo_url :varchar</text>
<text text-anchor="start" x="308" y="-820.3" font-family="Times New Roman,serif" font-size="14.00">include_pull_request :boolean</text>
<text text-anchor="start" x="308" y="-805.3" font-family="Times New Roman,serif" font-size="14.00">created_at :datetime</text>
<text text-anchor="start" x="308" y="-790.3" font-family="Times New Roman,serif" font-size="14.00">updated_at :datetime</text>
</g>
<!-- Project -->
<g id="node8" class="node"><title>Project</title>
<path fill="none" stroke="black" d="M516.5,-519.5C516.5,-519.5 672.5,-519.5 672.5,-519.5 678.5,-519.5 684.5,-525.5 684.5,-531.5 684.5,-531.5 684.5,-673.5 684.5,-673.5 684.5,-679.5 678.5,-685.5 672.5,-685.5 672.5,-685.5 516.5,-685.5 516.5,-685.5 510.5,-685.5 504.5,-679.5 504.5,-673.5 504.5,-673.5 504.5,-531.5 504.5,-531.5 504.5,-525.5 510.5,-519.5 516.5,-519.5"/>
<text text-anchor="middle" x="594.5" y="-670.3" font-family="Times New Roman,serif" font-size="14.00">Project</text>
<polyline fill="none" stroke="black" points="504.5,-662.5 684.5,-662.5 "/>
<text text-anchor="start" x="512.5" y="-647.3" font-family="Times New Roman,serif" font-size="14.00">id :INTEGER</text>
<text text-anchor="start" x="512.5" y="-632.3" font-family="Times New Roman,serif" font-size="14.00">name :varchar</text>
<text text-anchor="start" x="512.5" y="-617.3" font-family="Times New Roman,serif" font-size="14.00">public :boolean</text>
<text text-anchor="start" x="512.5" y="-602.3" font-family="Times New Roman,serif" font-size="14.00">description :varchar</text>
<text text-anchor="start" x="512.5" y="-587.3" font-family="Times New Roman,serif" font-size="14.00">project_source_id :integer</text>
<text text-anchor="start" x="512.5" y="-572.3" font-family="Times New Roman,serif" font-size="14.00">project_source_type :varchar</text>
<text text-anchor="start" x="512.5" y="-557.3" font-family="Times New Roman,serif" font-size="14.00">created_at :datetime</text>
<text text-anchor="start" x="512.5" y="-542.3" font-family="Times New Roman,serif" font-size="14.00">updated_at :datetime</text>
<text text-anchor="start" x="512.5" y="-527.3" font-family="Times New Roman,serif" font-size="14.00">user_id :integer</text>
</g>
<!-- GithubSource&#45;&gt;Project -->
<g id="edge1" class="edge"><title>GithubSource&#45;&gt;Project</title>
<path fill="none" stroke="#1aef98" d="M442.683,-776.258C465.065,-750.788 491.818,-720.346 516.586,-692.16"/>
<ellipse fill="none" stroke="#1aef98" cx="439.951" cy="-779.366" rx="4.00002" ry="4.00002"/>
<ellipse fill="#1aef98" stroke="#1aef98" cx="519.529" cy="-688.812" rx="4.00002" ry="4.00002"/>
</g>
<!-- Issue -->
<g id="node4" class="node"><title>Issue</title>
<path fill="none" stroke="black" d="M554.5,-158.5C554.5,-158.5 662.5,-158.5 662.5,-158.5 668.5,-158.5 674.5,-164.5 674.5,-170.5 674.5,-170.5 674.5,-282.5 674.5,-282.5 674.5,-288.5 668.5,-294.5 662.5,-294.5 662.5,-294.5 554.5,-294.5 554.5,-294.5 548.5,-294.5 542.5,-288.5 542.5,-282.5 542.5,-282.5 542.5,-170.5 542.5,-170.5 542.5,-164.5 548.5,-158.5 554.5,-158.5"/>
<text text-anchor="middle" x="608.5" y="-279.3" font-family="Times New Roman,serif" font-size="14.00">Issue</text>
<polyline fill="none" stroke="black" points="542.5,-271.5 674.5,-271.5 "/>
<text text-anchor="start" x="550.5" y="-256.3" font-family="Times New Roman,serif" font-size="14.00">id :INTEGER</text>
<text text-anchor="start" x="550.5" y="-241.3" font-family="Times New Roman,serif" font-size="14.00">name :varchar</text>
<text text-anchor="start" x="550.5" y="-226.3" font-family="Times New Roman,serif" font-size="14.00">description :varchar</text>
<text text-anchor="start" x="550.5" y="-211.3" font-family="Times New Roman,serif" font-size="14.00">src_issue_id :integer</text>
<text text-anchor="start" x="550.5" y="-196.3" font-family="Times New Roman,serif" font-size="14.00">poll_id :integer</text>
<text text-anchor="start" x="550.5" y="-181.3" font-family="Times New Roman,serif" font-size="14.00">created_at :datetime</text>
<text text-anchor="start" x="550.5" y="-166.3" font-family="Times New Roman,serif" font-size="14.00">updated_at :datetime</text>
</g>
<!-- Vote -->
<g id="node10" class="node"><title>Vote</title>
<path fill="none" stroke="black" d="M648.5,-0.5C648.5,-0.5 756.5,-0.5 756.5,-0.5 762.5,-0.5 768.5,-6.5 768.5,-12.5 768.5,-12.5 768.5,-109.5 768.5,-109.5 768.5,-115.5 762.5,-121.5 756.5,-121.5 756.5,-121.5 648.5,-121.5 648.5,-121.5 642.5,-121.5 636.5,-115.5 636.5,-109.5 636.5,-109.5 636.5,-12.5 636.5,-12.5 636.5,-6.5 642.5,-0.5 648.5,-0.5"/>
<text text-anchor="middle" x="702.5" y="-106.3" font-family="Times New Roman,serif" font-size="14.00">Vote</text>
<polyline fill="none" stroke="black" points="636.5,-98.5 768.5,-98.5 "/>
<text text-anchor="start" x="644.5" y="-83.3" font-family="Times New Roman,serif" font-size="14.00">id :INTEGER</text>
<text text-anchor="start" x="644.5" y="-68.3" font-family="Times New Roman,serif" font-size="14.00">issue_id :integer</text>
<text text-anchor="start" x="644.5" y="-53.3" font-family="Times New Roman,serif" font-size="14.00">user_id :integer</text>
<text text-anchor="start" x="644.5" y="-38.3" font-family="Times New Roman,serif" font-size="14.00">created_at :datetime</text>
<text text-anchor="start" x="644.5" y="-23.3" font-family="Times New Roman,serif" font-size="14.00">updated_at :datetime</text>
<text text-anchor="start" x="644.5" y="-8.3" font-family="Times New Roman,serif" font-size="14.00">poll_id :integer</text>
</g>
<!-- Issue&#45;&gt;Vote -->
<g id="edge2" class="edge"><title>Issue&#45;&gt;Vote</title>
<path fill="none" stroke="#c5652f" d="M651.359,-150.952C655.232,-144.216 659.143,-137.414 662.985,-130.731"/>
<ellipse fill="none" stroke="#c5652f" cx="649.27" cy="-154.587" rx="4.00002" ry="4.00002"/>
<polygon fill="#c5652f" stroke="#c5652f" points="663.188,-130.378 672.073,-123.952 665.68,-126.043 668.172,-121.709 668.172,-121.709 668.172,-121.709 665.68,-126.043 664.271,-119.466 663.188,-130.378 663.188,-130.378"/>
</g>
<!-- MockedIssue -->
<g id="node5" class="node"><title>MockedIssue</title>
<path fill="none" stroke="black" d="M887.5,-782.5C887.5,-782.5 995.5,-782.5 995.5,-782.5 1001.5,-782.5 1007.5,-788.5 1007.5,-794.5 1007.5,-794.5 1007.5,-876.5 1007.5,-876.5 1007.5,-882.5 1001.5,-888.5 995.5,-888.5 995.5,-888.5 887.5,-888.5 887.5,-888.5 881.5,-888.5 875.5,-882.5 875.5,-876.5 875.5,-876.5 875.5,-794.5 875.5,-794.5 875.5,-788.5 881.5,-782.5 887.5,-782.5"/>
<text text-anchor="middle" x="941.5" y="-873.3" font-family="Times New Roman,serif" font-size="14.00">MockedIssue</text>
<polyline fill="none" stroke="black" points="875.5,-865.5 1007.5,-865.5 "/>
<text text-anchor="start" x="883.5" y="-850.3" font-family="Times New Roman,serif" font-size="14.00">id :INTEGER</text>
<text text-anchor="start" x="883.5" y="-835.3" font-family="Times New Roman,serif" font-size="14.00">name :varchar</text>
<text text-anchor="start" x="883.5" y="-820.3" font-family="Times New Roman,serif" font-size="14.00">description :varchar</text>
<text text-anchor="start" x="883.5" y="-805.3" font-family="Times New Roman,serif" font-size="14.00">created_at :datetime</text>
<text text-anchor="start" x="883.5" y="-790.3" font-family="Times New Roman,serif" font-size="14.00">updated_at :datetime</text>
</g>
<!-- MockedSource -->
<g id="node6" class="node"><title>MockedSource</title>
<path fill="none" stroke="black" d="M513.5,-790C513.5,-790 621.5,-790 621.5,-790 627.5,-790 633.5,-796 633.5,-802 633.5,-802 633.5,-869 633.5,-869 633.5,-875 627.5,-881 621.5,-881 621.5,-881 513.5,-881 513.5,-881 507.5,-881 501.5,-875 501.5,-869 501.5,-869 501.5,-802 501.5,-802 501.5,-796 507.5,-790 513.5,-790"/>
<text text-anchor="middle" x="567.5" y="-865.8" font-family="Times New Roman,serif" font-size="14.00">MockedSource</text>
<polyline fill="none" stroke="black" points="501.5,-858 633.5,-858 "/>
<text text-anchor="start" x="509.5" y="-842.8" font-family="Times New Roman,serif" font-size="14.00">id :INTEGER</text>
<text text-anchor="start" x="509.5" y="-827.8" font-family="Times New Roman,serif" font-size="14.00">created_at :datetime</text>
<text text-anchor="start" x="509.5" y="-812.8" font-family="Times New Roman,serif" font-size="14.00">updated_at :datetime</text>
<text text-anchor="start" x="509.5" y="-797.8" font-family="Times New Roman,serif" font-size="14.00">url :varchar</text>
</g>
<!-- MockedSource&#45;&gt;Project -->
<g id="edge3" class="edge"><title>MockedSource&#45;&gt;Project</title>
<path fill="none" stroke="#c0b875" d="M573.662,-781.776C576.696,-755.826 580.439,-723.802 583.912,-694.088"/>
<ellipse fill="none" stroke="#c0b875" cx="573.17" cy="-785.988" rx="4.00001" ry="4.00001"/>
<ellipse fill="#c0b875" stroke="#c0b875" cx="584.419" cy="-689.748" rx="4.00001" ry="4.00001"/>
</g>
<!-- Poll -->
<g id="node7" class="node"><title>Poll</title>
<path fill="none" stroke="black" d="M554.5,-331.5C554.5,-331.5 662.5,-331.5 662.5,-331.5 668.5,-331.5 674.5,-337.5 674.5,-343.5 674.5,-343.5 674.5,-470.5 674.5,-470.5 674.5,-476.5 668.5,-482.5 662.5,-482.5 662.5,-482.5 554.5,-482.5 554.5,-482.5 548.5,-482.5 542.5,-476.5 542.5,-470.5 542.5,-470.5 542.5,-343.5 542.5,-343.5 542.5,-337.5 548.5,-331.5 554.5,-331.5"/>
<text text-anchor="middle" x="608.5" y="-467.3" font-family="Times New Roman,serif" font-size="14.00">Poll</text>
<polyline fill="none" stroke="black" points="542.5,-459.5 674.5,-459.5 "/>
<text text-anchor="start" x="550.5" y="-444.3" font-family="Times New Roman,serif" font-size="14.00">id :INTEGER</text>
<text text-anchor="start" x="550.5" y="-429.3" font-family="Times New Roman,serif" font-size="14.00">name :varchar</text>
<text text-anchor="start" x="550.5" y="-414.3" font-family="Times New Roman,serif" font-size="14.00">description :varchar</text>
<text text-anchor="start" x="550.5" y="-399.3" font-family="Times New Roman,serif" font-size="14.00">expiration_date :date</text>
<text text-anchor="start" x="550.5" y="-384.3" font-family="Times New Roman,serif" font-size="14.00">project_id :integer</text>
<text text-anchor="start" x="550.5" y="-369.3" font-family="Times New Roman,serif" font-size="14.00">created_at :datetime</text>
<text text-anchor="start" x="550.5" y="-354.3" font-family="Times New Roman,serif" font-size="14.00">updated_at :datetime</text>
<text text-anchor="start" x="550.5" y="-339.3" font-family="Times New Roman,serif" font-size="14.00">enabled :boolean</text>
</g>
<!-- Poll&#45;&gt;Issue -->
<g id="edge4" class="edge"><title>Poll&#45;&gt;Issue</title>
<path fill="none" stroke="#bf7bdc" d="M608.5,-323.329C608.5,-317.198 608.5,-311.025 608.5,-304.927"/>
<ellipse fill="none" stroke="#bf7bdc" cx="608.5" cy="-327.334" rx="4" ry="4"/>
<polygon fill="#bf7bdc" stroke="#bf7bdc" points="608.5,-304.757 613,-294.757 608.5,-299.757 608.5,-294.757 608.5,-294.757 608.5,-294.757 608.5,-299.757 604,-294.757 608.5,-304.757 608.5,-304.757"/>
</g>
<!-- Poll&#45;&gt;Vote -->
<g id="edge5" class="edge"><title>Poll&#45;&gt;Vote</title>
<path fill="none" stroke="#0f71de" d="M670.286,-324.223C675.46,-314.717 680.03,-304.88 683.5,-295 701.983,-242.38 706.098,-179.115 705.944,-131.795"/>
<ellipse fill="none" stroke="#0f71de" cx="668.186" cy="-327.939" rx="4.00002" ry="4.00002"/>
<polygon fill="#0f71de" stroke="#0f71de" points="705.943,-131.646 710.345,-121.603 705.894,-126.647 705.845,-121.647 705.845,-121.647 705.845,-121.647 705.894,-126.647 701.345,-121.691 705.943,-131.646 705.943,-131.646"/>
</g>
<!-- Project&#45;&gt;Poll -->
<g id="edge6" class="edge"><title>Project&#45;&gt;Poll</title>
<path fill="none" stroke="#1267fe" d="M601.022,-511.357C601.47,-505.171 601.92,-498.949 602.365,-492.793"/>
<ellipse fill="none" stroke="#1267fe" cx="600.726" cy="-515.449" rx="4" ry="4"/>
<polygon fill="#1267fe" stroke="#1267fe" points="602.387,-492.486 607.597,-482.836 602.748,-487.499 603.109,-482.512 603.109,-482.512 603.109,-482.512 602.748,-487.499 598.621,-482.187 602.387,-492.486 602.387,-492.486"/>
</g>
<!-- User -->
<g id="node9" class="node"><title>User</title>
<path fill="none" stroke="black" d="M663.5,-722.5C663.5,-722.5 845.5,-722.5 845.5,-722.5 851.5,-722.5 857.5,-728.5 857.5,-734.5 857.5,-734.5 857.5,-936.5 857.5,-936.5 857.5,-942.5 851.5,-948.5 845.5,-948.5 845.5,-948.5 663.5,-948.5 663.5,-948.5 657.5,-948.5 651.5,-942.5 651.5,-936.5 651.5,-936.5 651.5,-734.5 651.5,-734.5 651.5,-728.5 657.5,-722.5 663.5,-722.5"/>
<text text-anchor="middle" x="754.5" y="-933.3" font-family="Times New Roman,serif" font-size="14.00">User</text>
<polyline fill="none" stroke="black" points="651.5,-925.5 857.5,-925.5 "/>
<text text-anchor="start" x="659.5" y="-910.3" font-family="Times New Roman,serif" font-size="14.00">id :INTEGER</text>
<text text-anchor="start" x="659.5" y="-895.3" font-family="Times New Roman,serif" font-size="14.00">email :varchar</text>
<text text-anchor="start" x="659.5" y="-880.3" font-family="Times New Roman,serif" font-size="14.00">encrypted_password :varchar</text>
<text text-anchor="start" x="659.5" y="-865.3" font-family="Times New Roman,serif" font-size="14.00">reset_password_token :varchar</text>
<text text-anchor="start" x="659.5" y="-850.3" font-family="Times New Roman,serif" font-size="14.00">reset_password_sent_at :datetime</text>
<text text-anchor="start" x="659.5" y="-835.3" font-family="Times New Roman,serif" font-size="14.00">remember_created_at :datetime</text>
<text text-anchor="start" x="659.5" y="-820.3" font-family="Times New Roman,serif" font-size="14.00">sign_in_count :integer</text>
<text text-anchor="start" x="659.5" y="-805.3" font-family="Times New Roman,serif" font-size="14.00">current_sign_in_at :datetime</text>
<text text-anchor="start" x="659.5" y="-790.3" font-family="Times New Roman,serif" font-size="14.00">last_sign_in_at :datetime</text>
<text text-anchor="start" x="659.5" y="-775.3" font-family="Times New Roman,serif" font-size="14.00">current_sign_in_ip :varchar</text>
<text text-anchor="start" x="659.5" y="-760.3" font-family="Times New Roman,serif" font-size="14.00">last_sign_in_ip :varchar</text>
<text text-anchor="start" x="659.5" y="-745.3" font-family="Times New Roman,serif" font-size="14.00">created_at :datetime</text>
<text text-anchor="start" x="659.5" y="-730.3" font-family="Times New Roman,serif" font-size="14.00">updated_at :datetime</text>
</g>
<!-- User&#45;&gt;Project -->
<g id="edge7" class="edge"><title>User&#45;&gt;Project</title>
<path fill="none" stroke="#5dd839" d="M672.207,-715.689C667.137,-708.369 662.079,-701.067 657.115,-693.901"/>
<ellipse fill="none" stroke="#5dd839" cx="674.566" cy="-719.095" rx="4.00002" ry="4.00002"/>
<polygon fill="#5dd839" stroke="#5dd839" points="657.03,-693.777 655.035,-682.994 654.183,-689.667 651.336,-685.557 651.336,-685.557 651.336,-685.557 654.183,-689.667 647.637,-688.119 657.03,-693.777 657.03,-693.777"/>
</g>
<!-- User&#45;&gt;Vote -->
<g id="edge8" class="edge"><title>User&#45;&gt;Vote</title>
<path fill="none" stroke="#0d368f" d="M746.391,-714.034C735.383,-550.507 716.07,-263.586 707.198,-131.791"/>
<ellipse fill="none" stroke="#0d368f" cx="746.67" cy="-718.181" rx="4" ry="4"/>
<polygon fill="#0d368f" stroke="#0d368f" points="707.198,-131.789 711.016,-121.509 706.862,-126.8 706.526,-121.811 706.526,-121.811 706.526,-121.811 706.862,-126.8 702.036,-122.113 707.198,-131.789 707.198,-131.789"/>
</g>
</g>
</svg>
