<?xml version="1.0" encoding="UTF-8" standalone="no"?>
<!DOCTYPE svg PUBLIC "-//W3C//DTD SVG 1.1//EN"
 "http://www.w3.org/Graphics/SVG/1.1/DTD/svg11.dtd">
<!-- Generated by graphviz version 2.38.0 (20140413.2041)
 -->
<!-- Title: models_diagram Pages: 1 -->
<svg width="1016pt" height="957pt"
 viewBox="0.00 0.00 1015.50 957.00" xmlns="http://www.w3.org/2000/svg" xmlns:xlink="http://www.w3.org/1999/xlink">
<g id="graph0" class="graph" transform="scale(1 1) rotate(0) translate(4 953)">
<title>models_diagram</title>
<polygon fill="none" stroke="none" points="-4,4 -4,-953 1011.5,-953 1011.5,4 -4,4"/>
<!-- _diagram_info -->
<g id="node1" class="node"><title>_diagram_info</title>
<text text-anchor="start" x="8" y="-860.1" font-family="Times New Roman,serif" font-size="13.00">Models diagram</text>
<text text-anchor="start" x="8" y="-846.1" font-family="Times New Roman,serif" font-size="13.00">Date: Jul 27 2016 &#45; 15:58</text>
<text text-anchor="start" x="8" y="-832.1" font-family="Times New Roman,serif" font-size="13.00">Migration version: 20160725035251</text>
<text text-anchor="start" x="8" y="-818.1" font-family="Times New Roman,serif" font-size="13.00">Generated by RailRoady 1.5.1</text>
<text text-anchor="start" x="8" y="-804.1" font-family="Times New Roman,serif" font-size="13.00">http://railroady.prestonlee.com</text>
</g>
<!-- Ability -->
<g id="node2" class="node"><title>Ability</title>
<polygon fill="none" stroke="black" points="227.5,-812.5 227.5,-858.5 281.5,-858.5 281.5,-812.5 227.5,-812.5"/>
<text text-anchor="middle" x="254.5" y="-843.3" font-family="Times New Roman,serif" font-size="14.00">Ability</text>
<polyline fill="none" stroke="black" points="227.5,-835.5 281.5,-835.5 "/>
<text text-anchor="middle" x="254.5" y="-820.3" font-family="Times New Roman,serif" font-size="14.00"> </text>
</g>
<!-- GithubSource -->
<g id="node3" class="node"><title>GithubSource</title>
<path fill="none" stroke="black" d="M312,-782.5C312,-782.5 471,-782.5 471,-782.5 477,-782.5 483,-788.5 483,-794.5 483,-794.5 483,-876.5 483,-876.5 483,-882.5 477,-888.5 471,-888.5 471,-888.5 312,-888.5 312,-888.5 306,-888.5 300,-882.5 300,-876.5 300,-876.5 300,-794.5 300,-794.5 300,-788.5 306,-782.5 312,-782.5"/>
<text text-anchor="middle" x="391.5" y="-873.3" font-family="Times New Roman,serif" font-size="14.00">GithubSource</text>
<polyline fill="none" stroke="black" points="300,-865.5 483,-865.5 "/>
<text text-anchor="start" x="308" y="-850.3" font-family="Times New Roman,serif" font-size="14.00">id :INTEGER</text>
<text text-anchor="start" x="308" y="-835.3" font-family="Times New Roman,serif" font-size="14.00">repo_url :varchar</text>
<text text-anchor="start" x="308" y="-820.3" font-family="Times New Roman,serif" font-size="14.00">include_pull_request :boolean</text>
<text text-anchor="start" x="308" y="-805.3" font-family="Times New Roman,serif" font-size="14.00">created_at :datetime</text>
<text text-anchor="start" x="308" y="-790.3" font-family="Times New Roman,serif" font-size="14.00">updated_at :datetime</text>
</g>
<!-- Project -->
<g id="node8" class="node"><title>Project</title>
<path fill="none" stroke="black" d="M489.5,-519.5C489.5,-519.5 645.5,-519.5 645.5,-519.5 651.5,-519.5 657.5,-525.5 657.5,-531.5 657.5,-531.5 657.5,-673.5 657.5,-673.5 657.5,-679.5 651.5,-685.5 645.5,-685.5 645.5,-685.5 489.5,-685.5 489.5,-685.5 483.5,-685.5 477.5,-679.5 477.5,-673.5 477.5,-673.5 477.5,-531.5 477.5,-531.5 477.5,-525.5 483.5,-519.5 489.5,-519.5"/>
<text text-anchor="middle" x="567.5" y="-670.3" font-family="Times New Roman,serif" font-size="14.00">Project</text>
<polyline fill="none" stroke="black" points="477.5,-662.5 657.5,-662.5 "/>
<text text-anchor="start" x="485.5" y="-647.3" font-family="Times New Roman,serif" font-size="14.00">id :INTEGER</text>
<text text-anchor="start" x="485.5" y="-632.3" font-family="Times New Roman,serif" font-size="14.00">name :varchar</text>
<text text-anchor="start" x="485.5" y="-617.3" font-family="Times New Roman,serif" font-size="14.00">public :boolean</text>
<text text-anchor="start" x="485.5" y="-602.3" font-family="Times New Roman,serif" font-size="14.00">description :varchar</text>
<text text-anchor="start" x="485.5" y="-587.3" font-family="Times New Roman,serif" font-size="14.00">project_source_id :integer</text>
<text text-anchor="start" x="485.5" y="-572.3" font-family="Times New Roman,serif" font-size="14.00">project_source_type :varchar</text>
<text text-anchor="start" x="485.5" y="-557.3" font-family="Times New Roman,serif" font-size="14.00">created_at :datetime</text>
<text text-anchor="start" x="485.5" y="-542.3" font-family="Times New Roman,serif" font-size="14.00">updated_at :datetime</text>
<text text-anchor="start" x="485.5" y="-527.3" font-family="Times New Roman,serif" font-size="14.00">user_id :integer</text>
</g>
<!-- GithubSource&#45;&gt;Project -->
<g id="edge1" class="edge"><title>GithubSource&#45;&gt;Project</title>
<path fill="none" stroke="#b820fe" d="M436.138,-775.912C455.415,-750.611 478.393,-720.453 499.7,-692.487"/>
<ellipse fill="none" stroke="#b820fe" cx="433.641" cy="-779.189" rx="4.00002" ry="4.00002"/>
<ellipse fill="#b820fe" stroke="#b820fe" cx="502.365" cy="-688.989" rx="4.00002" ry="4.00002"/>
</g>
<!-- Issue -->
<g id="node4" class="node"><title>Issue</title>
<path fill="none" stroke="black" d="M466.5,-158.5C466.5,-158.5 574.5,-158.5 574.5,-158.5 580.5,-158.5 586.5,-164.5 586.5,-170.5 586.5,-170.5 586.5,-282.5 586.5,-282.5 586.5,-288.5 580.5,-294.5 574.5,-294.5 574.5,-294.5 466.5,-294.5 466.5,-294.5 460.5,-294.5 454.5,-288.5 454.5,-282.5 454.5,-282.5 454.5,-170.5 454.5,-170.5 454.5,-164.5 460.5,-158.5 466.5,-158.5"/>
<text text-anchor="middle" x="520.5" y="-279.3" font-family="Times New Roman,serif" font-size="14.00">Issue</text>
<polyline fill="none" stroke="black" points="454.5,-271.5 586.5,-271.5 "/>
<text text-anchor="start" x="462.5" y="-256.3" font-family="Times New Roman,serif" font-size="14.00">id :INTEGER</text>
<text text-anchor="start" x="462.5" y="-241.3" font-family="Times New Roman,serif" font-size="14.00">name :varchar</text>
<text text-anchor="start" x="462.5" y="-226.3" font-family="Times New Roman,serif" font-size="14.00">description :varchar</text>
<text text-anchor="start" x="462.5" y="-211.3" font-family="Times New Roman,serif" font-size="14.00">src_issue_id :integer</text>
<text text-anchor="start" x="462.5" y="-196.3" font-family="Times New Roman,serif" font-size="14.00">poll_id :integer</text>
<text text-anchor="start" x="462.5" y="-181.3" font-family="Times New Roman,serif" font-size="14.00">created_at :datetime</text>
<text text-anchor="start" x="462.5" y="-166.3" font-family="Times New Roman,serif" font-size="14.00">updated_at :datetime</text>
</g>
<!-- Vote -->
<g id="node10" class="node"><title>Vote</title>
<path fill="none" stroke="black" d="M513.5,-0.5C513.5,-0.5 621.5,-0.5 621.5,-0.5 627.5,-0.5 633.5,-6.5 633.5,-12.5 633.5,-12.5 633.5,-109.5 633.5,-109.5 633.5,-115.5 627.5,-121.5 621.5,-121.5 621.5,-121.5 513.5,-121.5 513.5,-121.5 507.5,-121.5 501.5,-115.5 501.5,-109.5 501.5,-109.5 501.5,-12.5 501.5,-12.5 501.5,-6.5 507.5,-0.5 513.5,-0.5"/>
<text text-anchor="middle" x="567.5" y="-106.3" font-family="Times New Roman,serif" font-size="14.00">Vote</text>
<polyline fill="none" stroke="black" points="501.5,-98.5 633.5,-98.5 "/>
<text text-anchor="start" x="509.5" y="-83.3" font-family="Times New Roman,serif" font-size="14.00">id :INTEGER</text>
<text text-anchor="start" x="509.5" y="-68.3" font-family="Times New Roman,serif" font-size="14.00">issue_id :integer</text>
<text text-anchor="start" x="509.5" y="-53.3" font-family="Times New Roman,serif" font-size="14.00">user_id :integer</text>
<text text-anchor="start" x="509.5" y="-38.3" font-family="Times New Roman,serif" font-size="14.00">created_at :datetime</text>
<text text-anchor="start" x="509.5" y="-23.3" font-family="Times New Roman,serif" font-size="14.00">updated_at :datetime</text>
<text text-anchor="start" x="509.5" y="-8.3" font-family="Times New Roman,serif" font-size="14.00">poll_id :integer</text>
</g>
<!-- Issue&#45;&gt;Vote -->
<g id="edge2" class="edge"><title>Issue&#45;&gt;Vote</title>
<path fill="none" stroke="#7b8f83" d="M542.176,-150.096C543.972,-143.848 545.782,-137.55 547.564,-131.35"/>
<ellipse fill="none" stroke="#7b8f83" cx="540.993" cy="-154.21" rx="4.00001" ry="4.00001"/>
<polygon fill="#7b8f83" stroke="#7b8f83" points="547.573,-131.319 554.661,-122.952 548.955,-126.514 550.336,-121.709 550.336,-121.709 550.336,-121.709 548.955,-126.514 546.011,-120.465 547.573,-131.319 547.573,-131.319"/>
</g>
<!-- MockedIssue -->
<g id="node5" class="node"><title>MockedIssue</title>
<path fill="none" stroke="black" d="M887.5,-782.5C887.5,-782.5 995.5,-782.5 995.5,-782.5 1001.5,-782.5 1007.5,-788.5 1007.5,-794.5 1007.5,-794.5 1007.5,-876.5 1007.5,-876.5 1007.5,-882.5 1001.5,-888.5 995.5,-888.5 995.5,-888.5 887.5,-888.5 887.5,-888.5 881.5,-888.5 875.5,-882.5 875.5,-876.5 875.5,-876.5 875.5,-794.5 875.5,-794.5 875.5,-788.5 881.5,-782.5 887.5,-782.5"/>
<text text-anchor="middle" x="941.5" y="-873.3" font-family="Times New Roman,serif" font-size="14.00">MockedIssue</text>
<polyline fill="none" stroke="black" points="875.5,-865.5 1007.5,-865.5 "/>
<text text-anchor="start" x="883.5" y="-850.3" font-family="Times New Roman,serif" font-size="14.00">id :INTEGER</text>
<text text-anchor="start" x="883.5" y="-835.3" font-family="Times New Roman,serif" font-size="14.00">name :varchar</text>
<text text-anchor="start" x="883.5" y="-820.3" font-family="Times New Roman,serif" font-size="14.00">description :varchar</text>
<text text-anchor="start" x="883.5" y="-805.3" font-family="Times New Roman,serif" font-size="14.00">created_at :datetime</text>
<text text-anchor="start" x="883.5" y="-790.3" font-family="Times New Roman,serif" font-size="14.00">updated_at :datetime</text>
</g>
<!-- MockedSource -->
<g id="node6" class="node"><title>MockedSource</title>
<path fill="none" stroke="black" d="M513.5,-790C513.5,-790 621.5,-790 621.5,-790 627.5,-790 633.5,-796 633.5,-802 633.5,-802 633.5,-869 633.5,-869 633.5,-875 627.5,-881 621.5,-881 621.5,-881 513.5,-881 513.5,-881 507.5,-881 501.5,-875 501.5,-869 501.5,-869 501.5,-802 501.5,-802 501.5,-796 507.5,-790 513.5,-790"/>
<text text-anchor="middle" x="567.5" y="-865.8" font-family="Times New Roman,serif" font-size="14.00">MockedSource</text>
<polyline fill="none" stroke="black" points="501.5,-858 633.5,-858 "/>
<text text-anchor="start" x="509.5" y="-842.8" font-family="Times New Roman,serif" font-size="14.00">id :INTEGER</text>
<text text-anchor="start" x="509.5" y="-827.8" font-family="Times New Roman,serif" font-size="14.00">created_at :datetime</text>
<text text-anchor="start" x="509.5" y="-812.8" font-family="Times New Roman,serif" font-size="14.00">updated_at :datetime</text>
<text text-anchor="start" x="509.5" y="-797.8" font-family="Times New Roman,serif" font-size="14.00">url :varchar</text>
</g>
<!-- MockedSource&#45;&gt;Project -->
<g id="edge3" class="edge"><title>MockedSource&#45;&gt;Project</title>
<path fill="none" stroke="#60e811" d="M567.5,-781.776C567.5,-755.826 567.5,-723.802 567.5,-694.088"/>
<ellipse fill="none" stroke="#60e811" cx="567.5" cy="-785.961" rx="4" ry="4"/>
<ellipse fill="#60e811" stroke="#60e811" cx="567.5" cy="-689.775" rx="4" ry="4"/>
</g>
<!-- Poll -->
<g id="node7" class="node"><title>Poll</title>
<path fill="none" stroke="black" d="M513.5,-331.5C513.5,-331.5 621.5,-331.5 621.5,-331.5 627.5,-331.5 633.5,-337.5 633.5,-343.5 633.5,-343.5 633.5,-470.5 633.5,-470.5 633.5,-476.5 627.5,-482.5 621.5,-482.5 621.5,-482.5 513.5,-482.5 513.5,-482.5 507.5,-482.5 501.5,-476.5 501.5,-470.5 501.5,-470.5 501.5,-343.5 501.5,-343.5 501.5,-337.5 507.5,-331.5 513.5,-331.5"/>
<text text-anchor="middle" x="567.5" y="-467.3" font-family="Times New Roman,serif" font-size="14.00">Poll</text>
<polyline fill="none" stroke="black" points="501.5,-459.5 633.5,-459.5 "/>
<text text-anchor="start" x="509.5" y="-444.3" font-family="Times New Roman,serif" font-size="14.00">id :INTEGER</text>
<text text-anchor="start" x="509.5" y="-429.3" font-family="Times New Roman,serif" font-size="14.00">name :varchar</text>
<text text-anchor="start" x="509.5" y="-414.3" font-family="Times New Roman,serif" font-size="14.00">description :varchar</text>
<text text-anchor="start" x="509.5" y="-399.3" font-family="Times New Roman,serif" font-size="14.00">expiration_date :date</text>
<text text-anchor="start" x="509.5" y="-384.3" font-family="Times New Roman,serif" font-size="14.00">project_id :integer</text>
<text text-anchor="start" x="509.5" y="-369.3" font-family="Times New Roman,serif" font-size="14.00">created_at :datetime</text>
<text text-anchor="start" x="509.5" y="-354.3" font-family="Times New Roman,serif" font-size="14.00">updated_at :datetime</text>
<text text-anchor="start" x="509.5" y="-339.3" font-family="Times New Roman,serif" font-size="14.00">enabled :boolean</text>
</g>
<!-- Poll&#45;&gt;Issue -->
<g id="edge4" class="edge"><title>Poll&#45;&gt;Issue</title>
<path fill="none" stroke="#a5a904" d="M545.732,-323.329C544.078,-317.048 542.413,-310.724 540.77,-304.481"/>
<ellipse fill="none" stroke="#a5a904" cx="546.822" cy="-327.466" rx="4.00001" ry="4.00001"/>
<polygon fill="#a5a904" stroke="#a5a904" points="540.755,-304.427 542.561,-293.611 539.482,-299.592 538.209,-294.757 538.209,-294.757 538.209,-294.757 539.482,-299.592 533.857,-295.903 540.755,-304.427 540.755,-304.427"/>
</g>
<!-- Poll&#45;&gt;Vote -->
<g id="edge5" class="edge"><title>Poll&#45;&gt;Vote</title>
<path fill="none" stroke="#5955ca" d="M590.729,-323.31C592.686,-313.826 594.352,-304.245 595.5,-295 603.004,-234.575 604.111,-218.277 595.5,-158 594.26,-149.321 592.42,-140.331 590.265,-131.49"/>
<ellipse fill="none" stroke="#5955ca" cx="589.864" cy="-327.334" rx="4.00001" ry="4.00001"/>
<polygon fill="#5955ca" stroke="#5955ca" points="590.21,-131.28 592.07,-120.473 588.961,-126.438 587.712,-121.597 587.712,-121.597 587.712,-121.597 588.961,-126.438 583.355,-122.721 590.21,-131.28 590.21,-131.28"/>
</g>
<!-- Project&#45;&gt;Poll -->
<g id="edge6" class="edge"><title>Project&#45;&gt;Poll</title>
<path fill="none" stroke="#c8b11a" d="M567.5,-511.357C567.5,-505.171 567.5,-498.949 567.5,-492.793"/>
<ellipse fill="none" stroke="#c8b11a" cx="567.5" cy="-515.439" rx="4" ry="4"/>
<polygon fill="#c8b11a" stroke="#c8b11a" points="567.5,-492.512 572,-482.512 567.5,-487.512 567.5,-482.512 567.5,-482.512 567.5,-482.512 567.5,-487.512 563,-482.512 567.5,-492.512 567.5,-492.512"/>
</g>
<!-- User -->
<g id="node9" class="node"><title>User</title>
<path fill="none" stroke="black" d="M663.5,-722.5C663.5,-722.5 845.5,-722.5 845.5,-722.5 851.5,-722.5 857.5,-728.5 857.5,-734.5 857.5,-734.5 857.5,-936.5 857.5,-936.5 857.5,-942.5 851.5,-948.5 845.5,-948.5 845.5,-948.5 663.5,-948.5 663.5,-948.5 657.5,-948.5 651.5,-942.5 651.5,-936.5 651.5,-936.5 651.5,-734.5 651.5,-734.5 651.5,-728.5 657.5,-722.5 663.5,-722.5"/>
<text text-anchor="middle" x="754.5" y="-933.3" font-family="Times New Roman,serif" font-size="14.00">User</text>
<polyline fill="none" stroke="black" points="651.5,-925.5 857.5,-925.5 "/>
<text text-anchor="start" x="659.5" y="-910.3" font-family="Times New Roman,serif" font-size="14.00">id :INTEGER</text>
<text text-anchor="start" x="659.5" y="-895.3" font-family="Times New Roman,serif" font-size="14.00">email :varchar</text>
<text text-anchor="start" x="659.5" y="-880.3" font-family="Times New Roman,serif" font-size="14.00">encrypted_password :varchar</text>
<text text-anchor="start" x="659.5" y="-865.3" font-family="Times New Roman,serif" font-size="14.00">reset_password_token :varchar</text>
<text text-anchor="start" x="659.5" y="-850.3" font-family="Times New Roman,serif" font-size="14.00">reset_password_sent_at :datetime</text>
<text text-anchor="start" x="659.5" y="-835.3" font-family="Times New Roman,serif" font-size="14.00">remember_created_at :datetime</text>
<text text-anchor="start" x="659.5" y="-820.3" font-family="Times New Roman,serif" font-size="14.00">sign_in_count :integer</text>
<text text-anchor="start" x="659.5" y="-805.3" font-family="Times New Roman,serif" font-size="14.00">current_sign_in_at :datetime</text>
<text text-anchor="start" x="659.5" y="-790.3" font-family="Times New Roman,serif" font-size="14.00">last_sign_in_at :datetime</text>
<text text-anchor="start" x="659.5" y="-775.3" font-family="Times New Roman,serif" font-size="14.00">current_sign_in_ip :varchar</text>
<text text-anchor="start" x="659.5" y="-760.3" font-family="Times New Roman,serif" font-size="14.00">last_sign_in_ip :varchar</text>
<text text-anchor="start" x="659.5" y="-745.3" font-family="Times New Roman,serif" font-size="14.00">created_at :datetime</text>
<text text-anchor="start" x="659.5" y="-730.3" font-family="Times New Roman,serif" font-size="14.00">updated_at :datetime</text>
</g>
<!-- User&#45;&gt;Project -->
<g id="edge7" class="edge"><title>User&#45;&gt;Project</title>
<path fill="none" stroke="#0e4319" d="M658.555,-715.98C652.443,-708.43 646.344,-700.896 640.364,-693.509"/>
<ellipse fill="none" stroke="#0e4319" cx="661.222" cy="-719.274" rx="4.00002" ry="4.00002"/>
<polygon fill="#0e4319" stroke="#0e4319" points="640.219,-693.329 637.425,-682.725 637.073,-689.443 633.927,-685.557 633.927,-685.557 633.927,-685.557 637.073,-689.443 630.429,-688.388 640.219,-693.329 640.219,-693.329"/>
</g>
</g>
</svg>
