<?xml version="1.0" encoding="UTF-8" standalone="no"?>
<!DOCTYPE svg PUBLIC "-//W3C//DTD SVG 1.1//EN"
 "http://www.w3.org/Graphics/SVG/1.1/DTD/svg11.dtd">
<!-- Generated by graphviz version 2.38.0 (20140413.2041)
 -->
<!-- Title: models_diagram Pages: 1 -->
<svg width="938pt" height="374pt"
 viewBox="0.00 0.00 937.89 374.00" xmlns="http://www.w3.org/2000/svg" xmlns:xlink="http://www.w3.org/1999/xlink">
<g id="graph0" class="graph" transform="scale(1 1) rotate(0) translate(4 370)">
<title>models_diagram</title>
<polygon fill="none" stroke="none" points="-4,4 -4,-370 933.894,-370 933.894,4 -4,4"/>
<!-- _diagram_info -->
<g id="node1" class="node"><title>_diagram_info</title>
<text text-anchor="start" x="8" y="-351.6" font-family="Times New Roman,serif" font-size="13.00">Models diagram</text>
<text text-anchor="start" x="8" y="-337.6" font-family="Times New Roman,serif" font-size="13.00">Date: Jul 27 2016 &#45; 16:37</text>
<text text-anchor="start" x="8" y="-323.6" font-family="Times New Roman,serif" font-size="13.00">Migration version: 20160725035251</text>
<text text-anchor="start" x="8" y="-309.6" font-family="Times New Roman,serif" font-size="13.00">Generated by RailRoady 1.5.1</text>
<text text-anchor="start" x="8" y="-295.6" font-family="Times New Roman,serif" font-size="13.00">http://railroady.prestonlee.com</text>
</g>
<!-- Ability -->
<g id="node2" class="node"><title>Ability</title>
<polygon fill="none" stroke="black" points="281.5,-345 227.5,-345 227.5,-309 281.5,-309 281.5,-345"/>
<text text-anchor="middle" x="254.5" y="-323.3" font-family="Times New Roman,serif" font-size="14.00">Ability</text>
</g>
<!-- GithubSource -->
<g id="node3" class="node"><title>GithubSource</title>
<ellipse fill="none" stroke="black" cx="361.5" cy="-327" rx="61.99" ry="18"/>
<text text-anchor="middle" x="361.5" y="-323.3" font-family="Times New Roman,serif" font-size="14.00">GithubSource</text>
</g>
<!-- Project -->
<g id="node8" class="node"><title>Project</title>
<ellipse fill="none" stroke="black" cx="516.5" cy="-234" rx="36.2938" ry="18"/>
<text text-anchor="middle" x="516.5" y="-230.3" font-family="Times New Roman,serif" font-size="14.00">Project</text>
</g>
<!-- GithubSource&#45;&gt;Project -->
<g id="edge1" class="edge"><title>GithubSource&#45;&gt;Project</title>
<path fill="none" stroke="#a2b0e5" d="M394.694,-306.512C421.943,-290.514 460.197,-268.055 486.527,-252.597"/>
<ellipse fill="none" stroke="#a2b0e5" cx="391.243" cy="-308.538" rx="4.00002" ry="4.00002"/>
<ellipse fill="#a2b0e5" stroke="#a2b0e5" cx="490.169" cy="-250.459" rx="4.00002" ry="4.00002"/>
</g>
<!-- Issue -->
<g id="node4" class="node"><title>Issue</title>
<ellipse fill="none" stroke="black" cx="520.5" cy="-90" rx="29.795" ry="18"/>
<text text-anchor="middle" x="520.5" y="-86.3" font-family="Times New Roman,serif" font-size="14.00">Issue</text>
</g>
<!-- Vote -->
<g id="node11" class="node"><title>Vote</title>
<ellipse fill="none" stroke="black" cx="578.5" cy="-18" rx="28.6953" ry="18"/>
<text text-anchor="middle" x="578.5" y="-14.3" font-family="Times New Roman,serif" font-size="14.00">Vote</text>
</g>
<!-- Issue&#45;&gt;Vote -->
<g id="edge2" class="edge"><title>Issue&#45;&gt;Vote</title>
<path fill="none" stroke="#3e4f47" d="M538.6,-67.1552C545.114,-59.2938 552.486,-50.3962 559.106,-42.407"/>
<ellipse fill="none" stroke="#3e4f47" cx="535.924" cy="-70.3846" rx="4.00002" ry="4.00002"/>
<polygon fill="#3e4f47" stroke="#3e4f47" points="559.284,-42.1921 569.129,-37.3629 562.474,-38.342 565.664,-34.4918 565.664,-34.4918 565.664,-34.4918 562.474,-38.342 562.199,-31.6207 559.284,-42.1921 559.284,-42.1921"/>
</g>
<!-- MockedIssue -->
<g id="node5" class="node"><title>MockedIssue</title>
<ellipse fill="none" stroke="black" cx="727.5" cy="-327" rx="59.5901" ry="18"/>
<text text-anchor="middle" x="727.5" y="-323.3" font-family="Times New Roman,serif" font-size="14.00">MockedIssue</text>
</g>
<!-- MockedSource -->
<g id="node6" class="node"><title>MockedSource</title>
<ellipse fill="none" stroke="black" cx="508.5" cy="-327" rx="66.8882" ry="18"/>
<text text-anchor="middle" x="508.5" y="-323.3" font-family="Times New Roman,serif" font-size="14.00">MockedSource</text>
</g>
<!-- MockedSource&#45;&gt;Project -->
<g id="edge3" class="edge"><title>MockedSource&#45;&gt;Project</title>
<path fill="none" stroke="#66ec1a" d="M510.722,-300.729C511.83,-288.118 513.168,-272.905 514.276,-260.292"/>
<ellipse fill="none" stroke="#66ec1a" cx="510.355" cy="-304.899" rx="4" ry="4"/>
<ellipse fill="#66ec1a" stroke="#66ec1a" cx="514.652" cy="-256.024" rx="4" ry="4"/>
</g>
<!-- Poll -->
<g id="node7" class="node"><title>Poll</title>
<ellipse fill="none" stroke="black" cx="520.5" cy="-162" rx="27" ry="18"/>
<text text-anchor="middle" x="520.5" y="-158.3" font-family="Times New Roman,serif" font-size="14.00">Poll</text>
</g>
<!-- Poll&#45;&gt;Issue -->
<g id="edge4" class="edge"><title>Poll&#45;&gt;Issue</title>
<path fill="none" stroke="#b436ca" d="M520.5,-135.64C520.5,-130.063 520.5,-124.132 520.5,-118.476"/>
<ellipse fill="none" stroke="#b436ca" cx="520.5" cy="-139.697" rx="4" ry="4"/>
<polygon fill="#b436ca" stroke="#b436ca" points="520.5,-118.104 525,-108.104 520.5,-113.104 520.5,-108.104 520.5,-108.104 520.5,-108.104 520.5,-113.104 516,-108.104 520.5,-118.104 520.5,-118.104"/>
</g>
<!-- Poll&#45;&gt;Vote -->
<g id="edge5" class="edge"><title>Poll&#45;&gt;Vote</title>
<path fill="none" stroke="#fd8bf7" d="M539.173,-139.989C546.505,-130.743 554.375,-119.404 559.5,-108 568.337,-88.3355 573.152,-64.3483 575.721,-46.2335"/>
<ellipse fill="none" stroke="#fd8bf7" cx="536.513" cy="-143.23" rx="4.00002" ry="4.00002"/>
<polygon fill="#fd8bf7" stroke="#fd8bf7" points="575.753,-45.9841 581.481,-36.6334 576.385,-41.0243 577.017,-36.0644 577.017,-36.0644 577.017,-36.0644 576.385,-41.0243 572.553,-35.4954 575.753,-45.9841 575.753,-45.9841"/>
</g>
<!-- Project&#45;&gt;Poll -->
<g id="edge6" class="edge"><title>Project&#45;&gt;Poll</title>
<path fill="none" stroke="#c998bc" d="M517.949,-207.64C518.268,-202.063 518.607,-196.132 518.93,-190.476"/>
<ellipse fill="none" stroke="#c998bc" cx="517.717" cy="-211.703" rx="4" ry="4"/>
<polygon fill="#c998bc" stroke="#c998bc" points="518.952,-190.088 524.015,-180.361 519.237,-185.096 519.523,-180.104 519.523,-180.104 519.523,-180.104 519.237,-185.096 515.03,-179.848 518.952,-190.088 518.952,-190.088"/>
</g>
<!-- ProjectSource -->
<g id="node9" class="node"><title>ProjectSource</title>
<ellipse fill="none" stroke="black" cx="867.5" cy="-327" rx="62.2891" ry="18"/>
<text text-anchor="middle" x="867.5" y="-323.3" font-family="Times New Roman,serif" font-size="14.00">ProjectSource</text>
</g>
<!-- User -->
<g id="node10" class="node"><title>User</title>
<ellipse fill="none" stroke="black" cx="621.5" cy="-327" rx="27.8951" ry="18"/>
<text text-anchor="middle" x="621.5" y="-323.3" font-family="Times New Roman,serif" font-size="14.00">User</text>
</g>
<!-- User&#45;&gt;Project -->
<g id="edge7" class="edge"><title>User&#45;&gt;Project</title>
<path fill="none" stroke="#26de15" d="M602.151,-305.103C596.603,-299.397 590.444,-293.323 584.5,-288 571.817,-276.641 556.98,-264.912 544.406,-255.385"/>
<ellipse fill="none" stroke="#26de15" cx="605.126" cy="-308.209" rx="4.00002" ry="4.00002"/>
<polygon fill="#26de15" stroke="#26de15" points="544.12,-255.17 538.817,-245.572 540.119,-252.172 536.118,-249.173 536.118,-249.173 536.118,-249.173 540.119,-252.172 533.419,-252.774 544.12,-255.17 544.12,-255.17"/>
</g>
<!-- User&#45;&gt;Vote -->
<g id="edge8" class="edge"><title>User&#45;&gt;Vote</title>
<path fill="none" stroke="#a0c921" d="M617.972,-300.813C609.988,-243.809 590.587,-105.295 582.326,-46.3182"/>
<ellipse fill="none" stroke="#a0c921" cx="618.572" cy="-305.096" rx="4.00001" ry="4.00001"/>
<polygon fill="#a0c921" stroke="#a0c921" points="582.306,-46.1724 585.375,-35.6448 581.612,-41.2207 580.919,-36.269 580.919,-36.269 580.919,-36.269 581.612,-41.2207 576.462,-36.8933 582.306,-46.1724 582.306,-46.1724"/>
</g>
</g>
</svg>
