<?xml version="1.0" encoding="UTF-8" standalone="no"?>
<!DOCTYPE svg PUBLIC "-//W3C//DTD SVG 1.1//EN"
 "http://www.w3.org/Graphics/SVG/1.1/DTD/svg11.dtd">
<!-- Generated by graphviz version 2.38.0 (20140413.2041)
 -->
<!-- Title: models_diagram Pages: 1 -->
<svg width="938pt" height="374pt"
 viewBox="0.00 0.00 937.89 374.00" xmlns="http://www.w3.org/2000/svg" xmlns:xlink="http://www.w3.org/1999/xlink">
<g id="graph0" class="graph" transform="scale(1 1) rotate(0) translate(4 370)">
<title>models_diagram</title>
<polygon fill="none" stroke="none" points="-4,4 -4,-370 933.894,-370 933.894,4 -4,4"/>
<!-- _diagram_info -->
<g id="node1" class="node"><title>_diagram_info</title>
<text text-anchor="start" x="8" y="-351.6" font-family="Times New Roman,serif" font-size="13.00">Models diagram</text>
<text text-anchor="start" x="8" y="-337.6" font-family="Times New Roman,serif" font-size="13.00">Date: Jul 27 2016 &#45; 15:58</text>
<text text-anchor="start" x="8" y="-323.6" font-family="Times New Roman,serif" font-size="13.00">Migration version: 20160725035251</text>
<text text-anchor="start" x="8" y="-309.6" font-family="Times New Roman,serif" font-size="13.00">Generated by RailRoady 1.5.1</text>
<text text-anchor="start" x="8" y="-295.6" font-family="Times New Roman,serif" font-size="13.00">http://railroady.prestonlee.com</text>
</g>
<!-- Ability -->
<g id="node2" class="node"><title>Ability</title>
<polygon fill="none" stroke="black" points="281.5,-345 227.5,-345 227.5,-309 281.5,-309 281.5,-345"/>
<text text-anchor="middle" x="254.5" y="-323.3" font-family="Times New Roman,serif" font-size="14.00">Ability</text>
</g>
<!-- GithubSource -->
<g id="node3" class="node"><title>GithubSource</title>
<ellipse fill="none" stroke="black" cx="361.5" cy="-327" rx="61.99" ry="18"/>
<text text-anchor="middle" x="361.5" y="-323.3" font-family="Times New Roman,serif" font-size="14.00">GithubSource</text>
</g>
<!-- Project -->
<g id="node8" class="node"><title>Project</title>
<ellipse fill="none" stroke="black" cx="508.5" cy="-234" rx="36.2938" ry="18"/>
<text text-anchor="middle" x="508.5" y="-230.3" font-family="Times New Roman,serif" font-size="14.00">Project</text>
</g>
<!-- GithubSource&#45;&gt;Project -->
<g id="edge1" class="edge"><title>GithubSource&#45;&gt;Project</title>
<path fill="none" stroke="#398682" d="M393.641,-306.103C419.221,-290.268 454.711,-268.298 479.446,-252.986"/>
<ellipse fill="none" stroke="#398682" cx="390.171" cy="-308.251" rx="4.00002" ry="4.00002"/>
<ellipse fill="#398682" stroke="#398682" cx="483.036" cy="-250.764" rx="4.00002" ry="4.00002"/>
</g>
<!-- Issue -->
<g id="node4" class="node"><title>Issue</title>
<ellipse fill="none" stroke="black" cx="479.5" cy="-90" rx="29.795" ry="18"/>
<text text-anchor="middle" x="479.5" y="-86.3" font-family="Times New Roman,serif" font-size="14.00">Issue</text>
</g>
<!-- Vote -->
<g id="node11" class="node"><title>Vote</title>
<ellipse fill="none" stroke="black" cx="508.5" cy="-18" rx="28.6953" ry="18"/>
<text text-anchor="middle" x="508.5" y="-14.3" font-family="Times New Roman,serif" font-size="14.00">Vote</text>
</g>
<!-- Issue&#45;&gt;Vote -->
<g id="edge2" class="edge"><title>Issue&#45;&gt;Vote</title>
<path fill="none" stroke="#a430f8" d="M489.535,-64.7779C492.117,-58.544 494.91,-51.8046 497.537,-45.4634"/>
<ellipse fill="none" stroke="#a430f8" cx="487.904" cy="-68.7155" rx="4.00001" ry="4.00001"/>
<polygon fill="#a430f8" stroke="#a430f8" points="497.648,-45.1948 505.633,-37.6786 499.562,-40.5755 501.475,-35.9562 501.475,-35.9562 501.475,-35.9562 499.562,-40.5755 497.318,-34.2339 497.648,-45.1948 497.648,-45.1948"/>
</g>
<!-- MockedIssue -->
<g id="node5" class="node"><title>MockedIssue</title>
<ellipse fill="none" stroke="black" cx="727.5" cy="-327" rx="59.5901" ry="18"/>
<text text-anchor="middle" x="727.5" y="-323.3" font-family="Times New Roman,serif" font-size="14.00">MockedIssue</text>
</g>
<!-- MockedSource -->
<g id="node6" class="node"><title>MockedSource</title>
<ellipse fill="none" stroke="black" cx="508.5" cy="-327" rx="66.8882" ry="18"/>
<text text-anchor="middle" x="508.5" y="-323.3" font-family="Times New Roman,serif" font-size="14.00">MockedSource</text>
</g>
<!-- MockedSource&#45;&gt;Project -->
<g id="edge3" class="edge"><title>MockedSource&#45;&gt;Project</title>
<path fill="none" stroke="#7fe535" d="M508.5,-300.729C508.5,-288.118 508.5,-272.905 508.5,-260.292"/>
<ellipse fill="none" stroke="#7fe535" cx="508.5" cy="-304.884" rx="4" ry="4"/>
<ellipse fill="#7fe535" stroke="#7fe535" cx="508.5" cy="-256.04" rx="4" ry="4"/>
</g>
<!-- Poll -->
<g id="node7" class="node"><title>Poll</title>
<ellipse fill="none" stroke="black" cx="508.5" cy="-162" rx="27" ry="18"/>
<text text-anchor="middle" x="508.5" y="-158.3" font-family="Times New Roman,serif" font-size="14.00">Poll</text>
</g>
<!-- Poll&#45;&gt;Issue -->
<g id="edge4" class="edge"><title>Poll&#45;&gt;Issue</title>
<path fill="none" stroke="#d91c96" d="M498.465,-136.778C495.883,-130.544 493.09,-123.805 490.463,-117.463"/>
<ellipse fill="none" stroke="#d91c96" cx="500.096" cy="-140.716" rx="4.00001" ry="4.00001"/>
<polygon fill="#d91c96" stroke="#d91c96" points="490.352,-117.195 490.682,-106.234 488.438,-112.575 486.525,-107.956 486.525,-107.956 486.525,-107.956 488.438,-112.575 482.367,-109.679 490.352,-117.195 490.352,-117.195"/>
</g>
<!-- Poll&#45;&gt;Vote -->
<g id="edge5" class="edge"><title>Poll&#45;&gt;Vote</title>
<path fill="none" stroke="#69ce04" d="M514.222,-135.933C515.962,-127.149 517.641,-117.185 518.5,-108 519.99,-92.0695 519.99,-87.9305 518.5,-72 517.703,-63.4781 516.2,-54.2849 514.597,-45.9862"/>
<ellipse fill="none" stroke="#69ce04" cx="513.374" cy="-140.013" rx="4.00001" ry="4.00001"/>
<polygon fill="#69ce04" stroke="#69ce04" points="514.573,-45.866 516.967,-35.1647 513.566,-40.9684 512.559,-36.0708 512.559,-36.0708 512.559,-36.0708 513.566,-40.9684 508.151,-36.977 514.573,-45.866 514.573,-45.866"/>
</g>
<!-- Project&#45;&gt;Poll -->
<g id="edge6" class="edge"><title>Project&#45;&gt;Poll</title>
<path fill="none" stroke="#c34def" d="M508.5,-207.64C508.5,-202.063 508.5,-196.132 508.5,-190.476"/>
<ellipse fill="none" stroke="#c34def" cx="508.5" cy="-211.697" rx="4" ry="4"/>
<polygon fill="#c34def" stroke="#c34def" points="508.5,-190.104 513,-180.104 508.5,-185.104 508.5,-180.104 508.5,-180.104 508.5,-180.104 508.5,-185.104 504,-180.104 508.5,-190.104 508.5,-190.104"/>
</g>
<!-- ProjectSource -->
<g id="node9" class="node"><title>ProjectSource</title>
<ellipse fill="none" stroke="black" cx="867.5" cy="-327" rx="62.2891" ry="18"/>
<text text-anchor="middle" x="867.5" y="-323.3" font-family="Times New Roman,serif" font-size="14.00">ProjectSource</text>
</g>
<!-- User -->
<g id="node10" class="node"><title>User</title>
<ellipse fill="none" stroke="black" cx="621.5" cy="-327" rx="27.8951" ry="18"/>
<text text-anchor="middle" x="621.5" y="-323.3" font-family="Times New Roman,serif" font-size="14.00">User</text>
</g>
<!-- User&#45;&gt;Project -->
<g id="edge7" class="edge"><title>User&#45;&gt;Project</title>
<path fill="none" stroke="#935405" d="M602.334,-304.893C596.787,-299.186 590.583,-293.164 584.5,-288 570.181,-275.845 553.113,-263.752 538.783,-254.193"/>
<ellipse fill="none" stroke="#935405" cx="605.3" cy="-308.01" rx="4.00002" ry="4.00002"/>
<polygon fill="#935405" stroke="#935405" points="538.618,-254.085 532.735,-244.831 534.441,-251.338 530.263,-248.591 530.263,-248.591 530.263,-248.591 534.441,-251.338 527.79,-252.351 538.618,-254.085 538.618,-254.085"/>
</g>
</g>
</svg>
