<?xml version="1.0" encoding="UTF-8" standalone="no"?>
<!DOCTYPE svg PUBLIC "-//W3C//DTD SVG 1.1//EN"
 "http://www.w3.org/Graphics/SVG/1.1/DTD/svg11.dtd">
<!-- Generated by graphviz version 2.38.0 (20140413.2041)
 -->
<!-- Title: models_diagram Pages: 1 -->
<svg width="1016pt" height="957pt"
 viewBox="0.00 0.00 1015.50 957.00" xmlns="http://www.w3.org/2000/svg" xmlns:xlink="http://www.w3.org/1999/xlink">
<g id="graph0" class="graph" transform="scale(1 1) rotate(0) translate(4 953)">
<title>models_diagram</title>
<polygon fill="none" stroke="none" points="-4,4 -4,-953 1011.5,-953 1011.5,4 -4,4"/>
<!-- _diagram_info -->
<g id="node1" class="node"><title>_diagram_info</title>
<text text-anchor="start" x="8" y="-860.1" font-family="Times New Roman,serif" font-size="13.00">Models diagram</text>
<text text-anchor="start" x="8" y="-846.1" font-family="Times New Roman,serif" font-size="13.00">Date: Jul 27 2016 &#45; 21:55</text>
<text text-anchor="start" x="8" y="-832.1" font-family="Times New Roman,serif" font-size="13.00">Migration version: 20160725035251</text>
<text text-anchor="start" x="8" y="-818.1" font-family="Times New Roman,serif" font-size="13.00">Generated by RailRoady 1.5.1</text>
<text text-anchor="start" x="8" y="-804.1" font-family="Times New Roman,serif" font-size="13.00">http://railroady.prestonlee.com</text>
</g>
<!-- Ability -->
<g id="node2" class="node"><title>Ability</title>
<polygon fill="none" stroke="black" points="227.5,-812.5 227.5,-858.5 281.5,-858.5 281.5,-812.5 227.5,-812.5"/>
<text text-anchor="middle" x="254.5" y="-843.3" font-family="Times New Roman,serif" font-size="14.00">Ability</text>
<polyline fill="none" stroke="black" points="227.5,-835.5 281.5,-835.5 "/>
<text text-anchor="middle" x="254.5" y="-820.3" font-family="Times New Roman,serif" font-size="14.00"> </text>
</g>
<!-- GithubSource -->
<g id="node3" class="node"><title>GithubSource</title>
<path fill="none" stroke="black" d="M312,-782.5C312,-782.5 471,-782.5 471,-782.5 477,-782.5 483,-788.5 483,-794.5 483,-794.5 483,-876.5 483,-876.5 483,-882.5 477,-888.5 471,-888.5 471,-888.5 312,-888.5 312,-888.5 306,-888.5 300,-882.5 300,-876.5 300,-876.5 300,-794.5 300,-794.5 300,-788.5 306,-782.5 312,-782.5"/>
<text text-anchor="middle" x="391.5" y="-873.3" font-family="Times New Roman,serif" font-size="14.00">GithubSource</text>
<polyline fill="none" stroke="black" points="300,-865.5 483,-865.5 "/>
<text text-anchor="start" x="308" y="-850.3" font-family="Times New Roman,serif" font-size="14.00">id :INTEGER</text>
<text text-anchor="start" x="308" y="-835.3" font-family="Times New Roman,serif" font-size="14.00">repo_url :varchar</text>
<text text-anchor="start" x="308" y="-820.3" font-family="Times New Roman,serif" font-size="14.00">include_pull_request :boolean</text>
<text text-anchor="start" x="308" y="-805.3" font-family="Times New Roman,serif" font-size="14.00">created_at :datetime</text>
<text text-anchor="start" x="308" y="-790.3" font-family="Times New Roman,serif" font-size="14.00">updated_at :datetime</text>
</g>
<!-- Project -->
<g id="node8" class="node"><title>Project</title>
<path fill="none" stroke="black" d="M523.5,-519.5C523.5,-519.5 679.5,-519.5 679.5,-519.5 685.5,-519.5 691.5,-525.5 691.5,-531.5 691.5,-531.5 691.5,-673.5 691.5,-673.5 691.5,-679.5 685.5,-685.5 679.5,-685.5 679.5,-685.5 523.5,-685.5 523.5,-685.5 517.5,-685.5 511.5,-679.5 511.5,-673.5 511.5,-673.5 511.5,-531.5 511.5,-531.5 511.5,-525.5 517.5,-519.5 523.5,-519.5"/>
<text text-anchor="middle" x="601.5" y="-670.3" font-family="Times New Roman,serif" font-size="14.00">Project</text>
<polyline fill="none" stroke="black" points="511.5,-662.5 691.5,-662.5 "/>
<text text-anchor="start" x="519.5" y="-647.3" font-family="Times New Roman,serif" font-size="14.00">id :INTEGER</text>
<text text-anchor="start" x="519.5" y="-632.3" font-family="Times New Roman,serif" font-size="14.00">name :varchar</text>
<text text-anchor="start" x="519.5" y="-617.3" font-family="Times New Roman,serif" font-size="14.00">public :boolean</text>
<text text-anchor="start" x="519.5" y="-602.3" font-family="Times New Roman,serif" font-size="14.00">description :varchar</text>
<text text-anchor="start" x="519.5" y="-587.3" font-family="Times New Roman,serif" font-size="14.00">project_source_id :integer</text>
<text text-anchor="start" x="519.5" y="-572.3" font-family="Times New Roman,serif" font-size="14.00">project_source_type :varchar</text>
<text text-anchor="start" x="519.5" y="-557.3" font-family="Times New Roman,serif" font-size="14.00">created_at :datetime</text>
<text text-anchor="start" x="519.5" y="-542.3" font-family="Times New Roman,serif" font-size="14.00">updated_at :datetime</text>
<text text-anchor="start" x="519.5" y="-527.3" font-family="Times New Roman,serif" font-size="14.00">user_id :integer</text>
</g>
<!-- GithubSource&#45;&gt;Project -->
<g id="edge1" class="edge"><title>GithubSource&#45;&gt;Project</title>
<path fill="none" stroke="#7c57c8" d="M443.812,-775.963C459.431,-758.557 476.621,-739.473 492.5,-722 501.457,-712.143 510.857,-701.85 520.223,-691.625"/>
<ellipse fill="none" stroke="#7c57c8" cx="440.805" cy="-779.315" rx="4.00002" ry="4.00002"/>
<ellipse fill="#7c57c8" stroke="#7c57c8" cx="523.027" cy="-688.565" rx="4.00002" ry="4.00002"/>
</g>
<!-- Issue -->
<g id="node4" class="node"><title>Issue</title>
<path fill="none" stroke="black" d="M568.5,-158.5C568.5,-158.5 676.5,-158.5 676.5,-158.5 682.5,-158.5 688.5,-164.5 688.5,-170.5 688.5,-170.5 688.5,-282.5 688.5,-282.5 688.5,-288.5 682.5,-294.5 676.5,-294.5 676.5,-294.5 568.5,-294.5 568.5,-294.5 562.5,-294.5 556.5,-288.5 556.5,-282.5 556.5,-282.5 556.5,-170.5 556.5,-170.5 556.5,-164.5 562.5,-158.5 568.5,-158.5"/>
<text text-anchor="middle" x="622.5" y="-279.3" font-family="Times New Roman,serif" font-size="14.00">Issue</text>
<polyline fill="none" stroke="black" points="556.5,-271.5 688.5,-271.5 "/>
<text text-anchor="start" x="564.5" y="-256.3" font-family="Times New Roman,serif" font-size="14.00">id :INTEGER</text>
<text text-anchor="start" x="564.5" y="-241.3" font-family="Times New Roman,serif" font-size="14.00">name :varchar</text>
<text text-anchor="start" x="564.5" y="-226.3" font-family="Times New Roman,serif" font-size="14.00">description :varchar</text>
<text text-anchor="start" x="564.5" y="-211.3" font-family="Times New Roman,serif" font-size="14.00">src_issue_id :integer</text>
<text text-anchor="start" x="564.5" y="-196.3" font-family="Times New Roman,serif" font-size="14.00">poll_id :integer</text>
<text text-anchor="start" x="564.5" y="-181.3" font-family="Times New Roman,serif" font-size="14.00">created_at :datetime</text>
<text text-anchor="start" x="564.5" y="-166.3" font-family="Times New Roman,serif" font-size="14.00">updated_at :datetime</text>
</g>
<!-- Vote -->
<g id="node10" class="node"><title>Vote</title>
<path fill="none" stroke="black" d="M625.5,-0.5C625.5,-0.5 733.5,-0.5 733.5,-0.5 739.5,-0.5 745.5,-6.5 745.5,-12.5 745.5,-12.5 745.5,-109.5 745.5,-109.5 745.5,-115.5 739.5,-121.5 733.5,-121.5 733.5,-121.5 625.5,-121.5 625.5,-121.5 619.5,-121.5 613.5,-115.5 613.5,-109.5 613.5,-109.5 613.5,-12.5 613.5,-12.5 613.5,-6.5 619.5,-0.5 625.5,-0.5"/>
<text text-anchor="middle" x="679.5" y="-106.3" font-family="Times New Roman,serif" font-size="14.00">Vote</text>
<polyline fill="none" stroke="black" points="613.5,-98.5 745.5,-98.5 "/>
<text text-anchor="start" x="621.5" y="-83.3" font-family="Times New Roman,serif" font-size="14.00">id :INTEGER</text>
<text text-anchor="start" x="621.5" y="-68.3" font-family="Times New Roman,serif" font-size="14.00">issue_id :integer</text>
<text text-anchor="start" x="621.5" y="-53.3" font-family="Times New Roman,serif" font-size="14.00">user_id :integer</text>
<text text-anchor="start" x="621.5" y="-38.3" font-family="Times New Roman,serif" font-size="14.00">created_at :datetime</text>
<text text-anchor="start" x="621.5" y="-23.3" font-family="Times New Roman,serif" font-size="14.00">updated_at :datetime</text>
<text text-anchor="start" x="621.5" y="-8.3" font-family="Times New Roman,serif" font-size="14.00">poll_id :integer</text>
</g>
<!-- Issue&#45;&gt;Vote -->
<g id="edge2" class="edge"><title>Issue&#45;&gt;Vote</title>
<path fill="none" stroke="#0f9bac" d="M648.688,-150.381C650.888,-144.073 653.105,-137.711 655.289,-131.448"/>
<ellipse fill="none" stroke="#0f9bac" cx="647.33" cy="-154.277" rx="4.00001" ry="4.00001"/>
<polygon fill="#0f9bac" stroke="#0f9bac" points="655.392,-131.151 662.933,-123.19 657.038,-126.43 658.684,-121.709 658.684,-121.709 658.684,-121.709 657.038,-126.43 654.435,-120.227 655.392,-131.151 655.392,-131.151"/>
</g>
<!-- MockedIssue -->
<g id="node5" class="node"><title>MockedIssue</title>
<path fill="none" stroke="black" d="M887.5,-782.5C887.5,-782.5 995.5,-782.5 995.5,-782.5 1001.5,-782.5 1007.5,-788.5 1007.5,-794.5 1007.5,-794.5 1007.5,-876.5 1007.5,-876.5 1007.5,-882.5 1001.5,-888.5 995.5,-888.5 995.5,-888.5 887.5,-888.5 887.5,-888.5 881.5,-888.5 875.5,-882.5 875.5,-876.5 875.5,-876.5 875.5,-794.5 875.5,-794.5 875.5,-788.5 881.5,-782.5 887.5,-782.5"/>
<text text-anchor="middle" x="941.5" y="-873.3" font-family="Times New Roman,serif" font-size="14.00">MockedIssue</text>
<polyline fill="none" stroke="black" points="875.5,-865.5 1007.5,-865.5 "/>
<text text-anchor="start" x="883.5" y="-850.3" font-family="Times New Roman,serif" font-size="14.00">id :INTEGER</text>
<text text-anchor="start" x="883.5" y="-835.3" font-family="Times New Roman,serif" font-size="14.00">name :varchar</text>
<text text-anchor="start" x="883.5" y="-820.3" font-family="Times New Roman,serif" font-size="14.00">description :varchar</text>
<text text-anchor="start" x="883.5" y="-805.3" font-family="Times New Roman,serif" font-size="14.00">created_at :datetime</text>
<text text-anchor="start" x="883.5" y="-790.3" font-family="Times New Roman,serif" font-size="14.00">updated_at :datetime</text>
</g>
<!-- MockedSource -->
<g id="node6" class="node"><title>MockedSource</title>
<path fill="none" stroke="black" d="M513.5,-790C513.5,-790 621.5,-790 621.5,-790 627.5,-790 633.5,-796 633.5,-802 633.5,-802 633.5,-869 633.5,-869 633.5,-875 627.5,-881 621.5,-881 621.5,-881 513.5,-881 513.5,-881 507.5,-881 501.5,-875 501.5,-869 501.5,-869 501.5,-802 501.5,-802 501.5,-796 507.5,-790 513.5,-790"/>
<text text-anchor="middle" x="567.5" y="-865.8" font-family="Times New Roman,serif" font-size="14.00">MockedSource</text>
<polyline fill="none" stroke="black" points="501.5,-858 633.5,-858 "/>
<text text-anchor="start" x="509.5" y="-842.8" font-family="Times New Roman,serif" font-size="14.00">id :INTEGER</text>
<text text-anchor="start" x="509.5" y="-827.8" font-family="Times New Roman,serif" font-size="14.00">created_at :datetime</text>
<text text-anchor="start" x="509.5" y="-812.8" font-family="Times New Roman,serif" font-size="14.00">updated_at :datetime</text>
<text text-anchor="start" x="509.5" y="-797.8" font-family="Times New Roman,serif" font-size="14.00">url :varchar</text>
</g>
<!-- MockedSource&#45;&gt;Project -->
<g id="edge3" class="edge"><title>MockedSource&#45;&gt;Project</title>
<path fill="none" stroke="#0983f9" d="M575.26,-781.776C579.096,-755.715 583.833,-723.528 588.223,-693.707"/>
<ellipse fill="none" stroke="#0983f9" cx="574.638" cy="-786.004" rx="4.00001" ry="4.00001"/>
<ellipse fill="#0983f9" stroke="#0983f9" cx="588.808" cy="-689.733" rx="4.00001" ry="4.00001"/>
</g>
<!-- Poll -->
<g id="node7" class="node"><title>Poll</title>
<path fill="none" stroke="black" d="M558.5,-331.5C558.5,-331.5 666.5,-331.5 666.5,-331.5 672.5,-331.5 678.5,-337.5 678.5,-343.5 678.5,-343.5 678.5,-470.5 678.5,-470.5 678.5,-476.5 672.5,-482.5 666.5,-482.5 666.5,-482.5 558.5,-482.5 558.5,-482.5 552.5,-482.5 546.5,-476.5 546.5,-470.5 546.5,-470.5 546.5,-343.5 546.5,-343.5 546.5,-337.5 552.5,-331.5 558.5,-331.5"/>
<text text-anchor="middle" x="612.5" y="-467.3" font-family="Times New Roman,serif" font-size="14.00">Poll</text>
<polyline fill="none" stroke="black" points="546.5,-459.5 678.5,-459.5 "/>
<text text-anchor="start" x="554.5" y="-444.3" font-family="Times New Roman,serif" font-size="14.00">id :INTEGER</text>
<text text-anchor="start" x="554.5" y="-429.3" font-family="Times New Roman,serif" font-size="14.00">name :varchar</text>
<text text-anchor="start" x="554.5" y="-414.3" font-family="Times New Roman,serif" font-size="14.00">description :varchar</text>
<text text-anchor="start" x="554.5" y="-399.3" font-family="Times New Roman,serif" font-size="14.00">expiration_date :date</text>
<text text-anchor="start" x="554.5" y="-384.3" font-family="Times New Roman,serif" font-size="14.00">project_id :integer</text>
<text text-anchor="start" x="554.5" y="-369.3" font-family="Times New Roman,serif" font-size="14.00">created_at :datetime</text>
<text text-anchor="start" x="554.5" y="-354.3" font-family="Times New Roman,serif" font-size="14.00">updated_at :datetime</text>
<text text-anchor="start" x="554.5" y="-339.3" font-family="Times New Roman,serif" font-size="14.00">enabled :boolean</text>
</g>
<!-- Poll&#45;&gt;Issue -->
<g id="edge4" class="edge"><title>Poll&#45;&gt;Issue</title>
<path fill="none" stroke="#ce3f90" d="M617.131,-323.329C617.475,-317.198 617.821,-311.025 618.162,-304.927"/>
<ellipse fill="none" stroke="#ce3f90" cx="616.907" cy="-327.34" rx="4" ry="4"/>
<polygon fill="#ce3f90" stroke="#ce3f90" points="618.173,-304.741 623.225,-295.008 618.452,-299.749 618.732,-294.757 618.732,-294.757 618.732,-294.757 618.452,-299.749 614.239,-294.505 618.173,-304.741 618.173,-304.741"/>
</g>
<!-- Project&#45;&gt;Poll -->
<g id="edge5" class="edge"><title>Project&#45;&gt;Poll</title>
<path fill="none" stroke="#4e8878" d="M606.624,-511.357C606.976,-505.171 607.33,-498.949 607.68,-492.793"/>
<ellipse fill="none" stroke="#4e8878" cx="606.392" cy="-515.445" rx="4" ry="4"/>
<polygon fill="#4e8878" stroke="#4e8878" points="607.697,-492.495 612.757,-482.767 607.98,-487.504 608.264,-482.512 608.264,-482.512 608.264,-482.512 607.98,-487.504 603.771,-482.256 607.697,-492.495 607.697,-492.495"/>
</g>
<!-- User -->
<g id="node9" class="node"><title>User</title>
<path fill="none" stroke="black" d="M663.5,-722.5C663.5,-722.5 845.5,-722.5 845.5,-722.5 851.5,-722.5 857.5,-728.5 857.5,-734.5 857.5,-734.5 857.5,-936.5 857.5,-936.5 857.5,-942.5 851.5,-948.5 845.5,-948.5 845.5,-948.5 663.5,-948.5 663.5,-948.5 657.5,-948.5 651.5,-942.5 651.5,-936.5 651.5,-936.5 651.5,-734.5 651.5,-734.5 651.5,-728.5 657.5,-722.5 663.5,-722.5"/>
<text text-anchor="middle" x="754.5" y="-933.3" font-family="Times New Roman,serif" font-size="14.00">User</text>
<polyline fill="none" stroke="black" points="651.5,-925.5 857.5,-925.5 "/>
<text text-anchor="start" x="659.5" y="-910.3" font-family="Times New Roman,serif" font-size="14.00">id :INTEGER</text>
<text text-anchor="start" x="659.5" y="-895.3" font-family="Times New Roman,serif" font-size="14.00">email :varchar</text>
<text text-anchor="start" x="659.5" y="-880.3" font-family="Times New Roman,serif" font-size="14.00">encrypted_password :varchar</text>
<text text-anchor="start" x="659.5" y="-865.3" font-family="Times New Roman,serif" font-size="14.00">reset_password_token :varchar</text>
<text text-anchor="start" x="659.5" y="-850.3" font-family="Times New Roman,serif" font-size="14.00">reset_password_sent_at :datetime</text>
<text text-anchor="start" x="659.5" y="-835.3" font-family="Times New Roman,serif" font-size="14.00">remember_created_at :datetime</text>
<text text-anchor="start" x="659.5" y="-820.3" font-family="Times New Roman,serif" font-size="14.00">sign_in_count :integer</text>
<text text-anchor="start" x="659.5" y="-805.3" font-family="Times New Roman,serif" font-size="14.00">current_sign_in_at :datetime</text>
<text text-anchor="start" x="659.5" y="-790.3" font-family="Times New Roman,serif" font-size="14.00">last_sign_in_at :datetime</text>
<text text-anchor="start" x="659.5" y="-775.3" font-family="Times New Roman,serif" font-size="14.00">current_sign_in_ip :varchar</text>
<text text-anchor="start" x="659.5" y="-760.3" font-family="Times New Roman,serif" font-size="14.00">last_sign_in_ip :varchar</text>
<text text-anchor="start" x="659.5" y="-745.3" font-family="Times New Roman,serif" font-size="14.00">created_at :datetime</text>
<text text-anchor="start" x="659.5" y="-730.3" font-family="Times New Roman,serif" font-size="14.00">updated_at :datetime</text>
</g>
<!-- User&#45;&gt;Project -->
<g id="edge6" class="edge"><title>User&#45;&gt;Project</title>
<path fill="none" stroke="#33c5f2" d="M675.807,-715.689C670.959,-708.369 666.122,-701.067 661.376,-693.901"/>
<ellipse fill="none" stroke="#33c5f2" cx="678.032" cy="-719.049" rx="4.00002" ry="4.00002"/>
<polygon fill="#33c5f2" stroke="#33c5f2" points="661.371,-693.894 659.601,-683.072 658.61,-689.725 655.849,-685.557 655.849,-685.557 655.849,-685.557 658.61,-689.725 652.098,-688.042 661.371,-693.894 661.371,-693.894"/>
</g>
<!-- User&#45;&gt;Vote -->
<g id="edge7" class="edge"><title>User&#45;&gt;Vote</title>
<path fill="none" stroke="#393c02" d="M748.071,-714.505C739.955,-578.955 723.786,-351.96 697.5,-158 696.334,-149.393 694.913,-140.387 693.387,-131.486"/>
<ellipse fill="none" stroke="#393c02" cx="748.309" cy="-718.503" rx="4" ry="4"/>
<polygon fill="#393c02" stroke="#393c02" points="693.365,-131.356 696.059,-120.726 692.496,-126.432 691.628,-121.508 691.628,-121.508 691.628,-121.508 692.496,-126.432 687.196,-122.289 693.365,-131.356 693.365,-131.356"/>
</g>
</g>
</svg>
