<?xml version="1.0" encoding="UTF-8" standalone="no"?>
<!DOCTYPE svg PUBLIC "-//W3C//DTD SVG 1.1//EN"
 "http://www.w3.org/Graphics/SVG/1.1/DTD/svg11.dtd">
<!-- Generated by graphviz version 2.38.0 (20140413.2041)
 -->
<!-- Title: models_diagram Pages: 1 -->
<svg width="938pt" height="374pt"
 viewBox="0.00 0.00 937.89 374.00" xmlns="http://www.w3.org/2000/svg" xmlns:xlink="http://www.w3.org/1999/xlink">
<g id="graph0" class="graph" transform="scale(1 1) rotate(0) translate(4 370)">
<title>models_diagram</title>
<polygon fill="none" stroke="none" points="-4,4 -4,-370 933.894,-370 933.894,4 -4,4"/>
<!-- _diagram_info -->
<g id="node1" class="node"><title>_diagram_info</title>
<text text-anchor="start" x="8" y="-351.6" font-family="Times New Roman,serif" font-size="13.00">Models diagram</text>
<text text-anchor="start" x="8" y="-337.6" font-family="Times New Roman,serif" font-size="13.00">Date: Jul 27 2016 &#45; 21:55</text>
<text text-anchor="start" x="8" y="-323.6" font-family="Times New Roman,serif" font-size="13.00">Migration version: 20160725035251</text>
<text text-anchor="start" x="8" y="-309.6" font-family="Times New Roman,serif" font-size="13.00">Generated by RailRoady 1.5.1</text>
<text text-anchor="start" x="8" y="-295.6" font-family="Times New Roman,serif" font-size="13.00">http://railroady.prestonlee.com</text>
</g>
<!-- Ability -->
<g id="node2" class="node"><title>Ability</title>
<polygon fill="none" stroke="black" points="281.5,-345 227.5,-345 227.5,-309 281.5,-309 281.5,-345"/>
<text text-anchor="middle" x="254.5" y="-323.3" font-family="Times New Roman,serif" font-size="14.00">Ability</text>
</g>
<!-- GithubSource -->
<g id="node3" class="node"><title>GithubSource</title>
<ellipse fill="none" stroke="black" cx="361.5" cy="-327" rx="61.99" ry="18"/>
<text text-anchor="middle" x="361.5" y="-323.3" font-family="Times New Roman,serif" font-size="14.00">GithubSource</text>
</g>
<!-- Project -->
<g id="node8" class="node"><title>Project</title>
<ellipse fill="none" stroke="black" cx="532.5" cy="-234" rx="36.2938" ry="18"/>
<text text-anchor="middle" x="532.5" y="-230.3" font-family="Times New Roman,serif" font-size="14.00">Project</text>
</g>
<!-- GithubSource&#45;&gt;Project -->
<g id="edge1" class="edge"><title>GithubSource&#45;&gt;Project</title>
<path fill="none" stroke="#5a20b8" d="M397.053,-306.935C408.377,-300.873 420.96,-294.146 432.5,-288 455.567,-275.715 481.659,-261.888 501.406,-251.438"/>
<ellipse fill="none" stroke="#5a20b8" cx="393.343" cy="-308.922" rx="4.00002" ry="4.00002"/>
<ellipse fill="#5a20b8" stroke="#5a20b8" cx="505.108" cy="-249.48" rx="4.00002" ry="4.00002"/>
</g>
<!-- Issue -->
<g id="node4" class="node"><title>Issue</title>
<ellipse fill="none" stroke="black" cx="546.5" cy="-90" rx="29.795" ry="18"/>
<text text-anchor="middle" x="546.5" y="-86.3" font-family="Times New Roman,serif" font-size="14.00">Issue</text>
</g>
<!-- Vote -->
<g id="node11" class="node"><title>Vote</title>
<ellipse fill="none" stroke="black" cx="577.5" cy="-18" rx="28.6953" ry="18"/>
<text text-anchor="middle" x="577.5" y="-14.3" font-family="Times New Roman,serif" font-size="14.00">Vote</text>
</g>
<!-- Issue&#45;&gt;Vote -->
<g id="edge2" class="edge"><title>Issue&#45;&gt;Vote</title>
<path fill="none" stroke="#6b3177" d="M557.151,-64.9496C560.043,-58.4184 563.186,-51.3217 566.117,-44.7031"/>
<ellipse fill="none" stroke="#6b3177" cx="555.466" cy="-68.7536" rx="4.00002" ry="4.00002"/>
<polygon fill="#6b3177" stroke="#6b3177" points="566.157,-44.6134 574.321,-37.2921 568.182,-40.0417 570.206,-35.4699 570.206,-35.4699 570.206,-35.4699 568.182,-40.0417 566.092,-33.6478 566.157,-44.6134 566.157,-44.6134"/>
</g>
<!-- MockedIssue -->
<g id="node5" class="node"><title>MockedIssue</title>
<ellipse fill="none" stroke="black" cx="727.5" cy="-327" rx="59.5901" ry="18"/>
<text text-anchor="middle" x="727.5" y="-323.3" font-family="Times New Roman,serif" font-size="14.00">MockedIssue</text>
</g>
<!-- MockedSource -->
<g id="node6" class="node"><title>MockedSource</title>
<ellipse fill="none" stroke="black" cx="508.5" cy="-327" rx="66.8882" ry="18"/>
<text text-anchor="middle" x="508.5" y="-323.3" font-family="Times New Roman,serif" font-size="14.00">MockedSource</text>
</g>
<!-- MockedSource&#45;&gt;Project -->
<g id="edge3" class="edge"><title>MockedSource&#45;&gt;Project</title>
<path fill="none" stroke="#9a07a0" d="M515.165,-300.729C518.523,-287.997 522.58,-272.613 525.925,-259.929"/>
<ellipse fill="none" stroke="#9a07a0" cx="514.034" cy="-305.016" rx="4.00001" ry="4.00001"/>
<ellipse fill="#9a07a0" stroke="#9a07a0" cx="526.986" cy="-255.907" rx="4.00001" ry="4.00001"/>
</g>
<!-- Poll -->
<g id="node7" class="node"><title>Poll</title>
<ellipse fill="none" stroke="black" cx="537.5" cy="-162" rx="27" ry="18"/>
<text text-anchor="middle" x="537.5" y="-158.3" font-family="Times New Roman,serif" font-size="14.00">Poll</text>
</g>
<!-- Poll&#45;&gt;Issue -->
<g id="edge4" class="edge"><title>Poll&#45;&gt;Issue</title>
<path fill="none" stroke="#e7cb90" d="M540.716,-135.987C541.454,-130.249 542.242,-124.121 542.991,-118.293"/>
<ellipse fill="none" stroke="#e7cb90" cx="540.189" cy="-140.088" rx="4.00001" ry="4.00001"/>
<polygon fill="#e7cb90" stroke="#e7cb90" points="543.004,-118.194 548.742,-108.849 543.641,-113.234 544.279,-108.275 544.279,-108.275 544.279,-108.275 543.641,-113.234 539.816,-107.701 543.004,-118.194 543.004,-118.194"/>
</g>
<!-- Project&#45;&gt;Poll -->
<g id="edge5" class="edge"><title>Project&#45;&gt;Poll</title>
<path fill="none" stroke="#f2461f" d="M534.311,-207.64C534.71,-202.063 535.133,-196.132 535.537,-190.476"/>
<ellipse fill="none" stroke="#f2461f" cx="534.021" cy="-211.707" rx="4" ry="4"/>
<polygon fill="#f2461f" stroke="#f2461f" points="535.566,-190.079 540.767,-180.425 535.922,-185.092 536.278,-180.104 536.278,-180.104 536.278,-180.104 535.922,-185.092 531.79,-179.784 535.566,-190.079 535.566,-190.079"/>
</g>
<!-- ProjectSource -->
<g id="node9" class="node"><title>ProjectSource</title>
<ellipse fill="none" stroke="black" cx="867.5" cy="-327" rx="62.2891" ry="18"/>
<text text-anchor="middle" x="867.5" y="-323.3" font-family="Times New Roman,serif" font-size="14.00">ProjectSource</text>
</g>
<!-- User -->
<g id="node10" class="node"><title>User</title>
<ellipse fill="none" stroke="black" cx="621.5" cy="-327" rx="27.8951" ry="18"/>
<text text-anchor="middle" x="621.5" y="-323.3" font-family="Times New Roman,serif" font-size="14.00">User</text>
</g>
<!-- User&#45;&gt;Project -->
<g id="edge6" class="edge"><title>User&#45;&gt;Project</title>
<path fill="none" stroke="#a4491f" d="M601.387,-305.315C595.914,-299.694 589.983,-293.61 584.5,-288 574.927,-278.205 564.343,-267.411 555.236,-258.135"/>
<ellipse fill="none" stroke="#a4491f" cx="604.315" cy="-308.323" rx="4.00002" ry="4.00002"/>
<polygon fill="#a4491f" stroke="#a4491f" points="554.995,-257.889 551.199,-247.602 551.491,-254.322 547.988,-250.755 547.988,-250.755 547.988,-250.755 551.491,-254.322 544.777,-253.908 554.995,-257.889 554.995,-257.889"/>
</g>
<!-- User&#45;&gt;Vote -->
<g id="edge7" class="edge"><title>User&#45;&gt;Vote</title>
<path fill="none" stroke="#468c16" d="M618.022,-300.925C611.683,-255.338 597.768,-155.836 585.5,-72 584.268,-63.5837 582.896,-54.4207 581.641,-46.1172"/>
<ellipse fill="none" stroke="#468c16" cx="618.601" cy="-305.087" rx="4.00001" ry="4.00001"/>
<polygon fill="#468c16" stroke="#468c16" points="581.634,-46.0668 584.582,-35.5048 580.883,-41.1233 580.133,-36.1799 580.133,-36.1799 580.133,-36.1799 580.883,-41.1233 575.684,-36.8551 581.634,-46.0668 581.634,-46.0668"/>
</g>
</g>
</svg>
